<?xml version="1.0" standalone="no"?>
<!DOCTYPE svg PUBLIC "-//W3C//DTD SVG 1.1//EN" "http://www.w3.org/Graphics/SVG/1.1/DTD/svg11.dtd" >
<!--
2013-9-30: Created.
-->
<svg>
<metadata>
Created by iconfont
</metadata>
<defs>

<font id="iconfont" horiz-adv-x="1024" >
  <font-face
    font-family="iconfont"
    font-weight="500"
    font-stretch="normal"
    units-per-em="1024"
    ascent="896"
    descent="-128"
  />
    <missing-glyph />
    
    <glyph glyph-name="dui" unicode="&#58913;" d="M625.52062988 485.34887719c9.2845459 0 17.23425293-3.29754663 23.85900856-9.88769578 6.56048608-6.59014916 9.87780761-14.52502465 9.87780761-23.7947383 0-9.26477027-3.36181617-17.30346656-10.0360105-23.99743653L506.21569824 284.71270728c-6.44677711-6.49127173-14.35693359-9.78881836-23.70080566-9.78881836-9.48724342 0-17.46661353 3.29754663-23.94799781 9.78881836l-71.63635254 71.37432885c-6.46655273 6.49127173-9.73937964 14.42120385-9.73938035 23.99743653 0 9.26971435 3.31237817 17.20458984 9.87286424 23.794739 6.63464379 6.59014916 14.55468773 9.88769508 23.85406446 9.88769508 9.31420898 0 17.29357911-3.29754663 23.96777344-9.99151588l47.67352319-47.68835473L601.57263208 475.36230469c6.67419434 6.69396997 14.66839599 10.09533667 23.9727168 10.09533667l-0.024719-0.1038208zM512.00494408 687.32482934c-41.07842993 0-80.39190697-8.0337522-117.85144042-24.10125732-37.44470191-15.96368432-69.70330787-37.59301734-96.74121142-64.57653809-27.05767846-27.09228492-48.61779785-59.32617188-64.65563917-96.8203125-16.06750512-37.38537574-24.07653833-76.72851586-24.10125732-117.82672143-0.04943872-40.99438477 8.01397729-80.33752417 24.10125732-117.82672143 16.05761695-37.49414063 37.62268042-69.73297095 64.65563917-96.8203125 26.9934082-26.98352075 59.25695825-48.50903297 96.74121142-64.57653809 37.50897217-16.06750512 76.79772949-24.10125732 117.85144042-24.10125732 41.04382348 0 80.3325808 8.0337522 117.84155226 24.10125732 37.50402808 16.06750512 69.74285913 37.59301734 96.74121142 64.57653809 27.04779029 27.09228492 48.59802222 59.32617188 64.68530225 96.8203125 16.05761695 37.48919654 24.12597633 76.83233666 24.07159424 117.82672143-0.01977563 41.09820557-8.0337522 80.43640161-24.07653761 117.82672143-16.06750512 37.49414063-37.62268042 69.73297095-64.68035888 96.8203125-27.0181272 26.98352075-59.29650879 48.61285376-96.74121142 64.57653809-37.45953345 16.06750512-76.77795386 24.10125732-117.84155226 24.10125732z m0 67.46374488c50.39758301 0 98.45672632-9.78881836 144.18237257-29.35656762 45.71081543-19.56774926 85.13305664-45.93328857 118.22222901-78.99774122 33.11389136-33.05950928 59.44482422-72.50646949 79.01257348-118.23706055C872.99975586 482.46661377 882.78857422 434.36297584 882.78857422 384c0-50.36791992-9.78881836-98.36279297-29.36645508-144.19720483-19.56774926-45.62677026-45.89868141-85.07373047-79.01257348-118.13323974-33.09411645-33.16827416-72.51141357-59.53381347-118.22222901-79.00268532C610.46166969 23.09912085999997 562.4025271 13.211425780000013 512 13.211425780000013c-50.38769555 0-98.46661377 9.88769508-144.19226074 29.45544434-45.71081543 19.46887183-85.13305664 45.83441186-118.222229 79.0026853-33.11389136 33.05950928-59.44482422 72.50646949-79.01257349 118.13323975C151.00024414 285.63720703 141.21142578 333.63702416 141.21142578 384c0 50.36791992 9.78881836 98.46661377 29.36645508 144.19720483 19.56774926 45.73059106 45.89868141 85.17755127 79.01257348 118.23706055 33.09411645 33.06445336 72.51141357 59.42999268 118.22222901 79.0026853C413.53833031 744.99975586 461.62219262 754.78857422 512.00494408 754.78857422z"  horiz-adv-x="1024" />

    
    <glyph glyph-name="dui1" unicode="&#58889;" d="M512 874C241.38 874 22 654.62 22 384s219.38-490 490-490 490 219.38 490 490S782.62 874 512 874z m259.66-369.85L481.12 213.62c-13.87-13.87-36.36-13.87-50.23 0L252.34 392.17c-13.87 13.87-13.87 36.36 0 50.23 13.87 13.87 36.36 13.87 50.23 0l153.44-153.44 265.42 265.42c13.87 13.87 36.36 13.87 50.23 0 13.87-13.87 13.87-36.36 0-50.23z"  horiz-adv-x="1024" />

    
    <glyph glyph-name="dui2" unicode="&#59199;" d="M512 830.4c247.424 0 448-200.576 448-448S759.424-65.6 512-65.6 64 134.976 64 382.4 264.576 830.4 512 830.4z m0-48C291.0864 782.4 112 603.3136 112 382.4s179.0864-400 400-400 400 179.0864 400 400S732.9136 782.4 512 782.4z m149.568-279.12c8.488 10.1808 23.6224 11.552 33.8016 3.0624 10.1792-8.4896 11.5504-23.624 3.0608-33.8032L522.96 262.128c-22.72-27.0768-63.088-30.608-90.1648-7.888l-104.1984 87.4336c-10.1552 8.52-11.4784 23.6576-2.96 33.8112 8.5216 10.1536 23.6592 11.4784 33.8128 2.96l104.1984-87.4352c6.7696-5.68 16.8624-4.7968 22.496 1.9168z"  horiz-adv-x="1024" />

    
    <glyph glyph-name="baocun1" unicode="&#59043;" d="M816.739994-18.004138 207.258755-18.004138C159.330024-18.004138 120.339961 21.015116 120.339961 68.975472L120.339961 698.466241c0 47.965221 38.990063 86.983259 86.918795 86.983259l609.482455 0c47.928732 0 86.918795-39.018038 86.918795-86.983259l0-629.487121C903.658789 21.015116 864.669942-18.004138 816.739994-18.004138L816.739994-18.004138zM197.79464 737.871066c-16.472499 0-29.876245-13.40253-29.876245-29.875029l0-648.545496c0-16.472499 13.403746-29.876245 29.876245-29.876245l628.409469 0c16.472499 0 29.876245 13.403746 29.876245 29.876245L856.080355 707.996037c0 16.472499-13.403746 29.875029-29.876245 29.875029L197.79464 737.871066 197.79464 737.871066zM197.79464 737.871066M757.059266 432.843398 266.938267 432.843398 266.938267 746.499576l29.87138 0 0-283.784798 430.379456 0L727.189103 746.499576l29.870164 0L757.059266 432.843398zM757.059266 432.843398M670.763223 507.522455l-87.402886 0L583.360336 656.881787l87.402886 0L670.763223 507.522455 670.763223 507.522455zM613.2305 537.393835l27.662559 0 0 89.617789-27.662559 0L613.2305 537.393835 613.2305 537.393835zM613.2305 537.393835"  horiz-adv-x="1024" />

    
    <glyph glyph-name="cuo" unicode="&#59171;" d="M512 839.111111C261.688889 839.111111 56.888889 634.311111 56.888889 384s204.8-455.111111 455.111111-455.111111 455.111111 204.8 455.111111 455.111111-204.8 455.111111-455.111111 455.111111m0-853.333333c-221.866667 0-398.222222 176.355556-398.222222 398.222222s176.355556 398.222222 398.222222 398.222222 398.222222-176.355556 398.222222-398.222222-176.355556-398.222222-398.222222-398.222222M684.942222 170.951111L302.705778 553.073778l40.220444 40.220444 382.179556-382.122666zM298.837333 211.057778l382.122667 382.179555 40.220444-40.220444-382.122666-382.179556z"  horiz-adv-x="1024" />

    
    <glyph glyph-name="xiaoliangyuce" unicode="&#59534;" d="M416 384.384c-17.664 0-32-14.272-32-32l0-448c0-17.6 14.336-32 32-32S448-113.28 448-95.616l0 448C448 370.112 433.664 384.384 416 384.384zM160 192.384c-17.664 0-32-14.272-32-32l0-256c0-17.6 14.336-32 32-32S192-113.28 192-95.616l0 256C192 178.112 177.664 192.384 160 192.384zM672 256.384c-17.664 0-32-14.272-32-32l0-320c0-17.6 14.336-32 32-32s32 14.4 32 32l0 320C704 242.112 689.664 256.384 672 256.384zM928 384.384c-17.664 0-32-14.272-32-32l0-448c0-17.6 14.336-32 32-32s32 14.4 32 32l0 448C960 370.112 945.664 384.384 928 384.384zM1002.496 830.272c-6.528 3.136-13.632 3.52-20.48 2.112L800 832.384c-17.664 0-32-14.272-32-32 0-17.6 14.336-32 32-32l109.632 0L605.248 462.528 372.672 694.976c-0.256 0.384-0.32 0.768-0.64 1.024s-0.64 0.384-0.96 0.64L370.624 697.152c-9.088 9.152-22.4 11.264-33.536 6.528C332.608 702.016 328.32 699.648 324.736 696L9.728 379.264c-13.056-13.248-13.056-34.496 0-47.616 13.12-13.12 34.304-13.12 47.36 0l295.36 297.024L587.456 393.6c12.032-12.032 31.36-12.032 43.392 0 0.192 0.128 0.192 0.384 0.384 0.512 0.64 0.64 1.408 0.768 2.048 1.344L960 723.776l0-115.392c0-17.6 14.336-32 32-32S1024 590.72 1024 608.384l0 192C1024 814.4 1014.976 825.856 1002.496 830.272z"  horiz-adv-x="1024" />

    
    <glyph glyph-name="shanghu" unicode="&#59040;" d="M1005.633722 279.993751c-5.311502 0.479955-10.431022 1.27988-15.518545 2.143799-1.087898 0.127988-2.271787 0.287973-3.359685 0.479955-2.399775 0.415961-4.671562 1.055901-7.007343 1.631847-9.951067 2.143799-19.678155 4.831547-28.989282 8.351217l0-133.235509-731.355435 0 0 133.235509c-9.375121-3.551667-19.006218-6.303409-29.053276-8.511202-2.335781-0.415961-4.607568-1.055901-6.943349-1.535856-1.087898-0.191982-2.175796-0.31997-3.359685-0.511952-5.11952-0.767928-10.271037-1.535856-15.518545-2.079805-5.983439-0.479955-12.094866-0.863919-18.270287-0.863919-12.47883 0-24.701684 1.215886-36.540574 3.327688l0-357.310502c0-29.309252 24.573696-53.11502 54.874855-53.11502l841.073149 0c30.237165 0 54.810861 23.773771 54.810861 53.11502l0 357.342499c-11.83889-2.143799-24.061744-3.327688-36.540574-3.327688-6.07943 0-12.254851 0.351967-18.23829 0.863919zM182.83086 786.250289l804.500578 0c30.301159 0 54.874855 24.573696 54.874855 54.874855s-24.573696 54.874855-54.874855 54.874855l-804.500578 0c-30.301159 0-54.874855-24.573696-54.874855-54.874855 0.031997-30.301159 24.605693-54.874855 54.874855-54.874855zM1067.387932 731.407431l-964.549573 0-102.838359-256.007999c0-80.728432 65.529857-146.258288 146.258288-146.258288s146.258288 65.529857 146.258288 146.258288c0-80.728432 65.529857-146.258288 146.258288-146.258288s146.258288 65.529857 146.258288 146.258288c0-80.728432 65.529857-146.258288 146.258288-146.258288s146.258288 65.529857 146.258288 146.258288c0-80.728432 65.529857-146.258288 146.258288-146.258288s146.258288 65.529857 146.258288 146.258288l-102.806362 256.007999z"  horiz-adv-x="1184" />

    
    <glyph glyph-name="ico_home_committed" unicode="&#59041;" d="M543.06891852 415.06891852V632.70669275A31.06891852 31.06891852 0 0 1 512 663.62026667c-17.2743187 0-31.06891852-13.8412032-31.06891852-30.91357392v-248.86203734c0-8.45074583 3.46418442-16.15583763 9.05658975-21.76377743 5.63900871-5.71668101 13.35963497-9.1497965 21.87251864-9.1497965h248.83096841A31.06891852 31.06891852 0 0 1 791.62026667 384c0 17.2743187-13.8412032 31.06891852-30.91357392 31.06891852H543.06891852z m-31.06891852-528.17161482C237.45950151-113.10269630000005 14.8973037 109.45950151 14.8973037 384 14.8973037 658.54049849 237.45950151 881.1026963 512 881.1026963c274.54049849 0 497.1026963-222.56219781 497.1026963-497.1026963 0-274.54049849-222.56219781-497.1026963-497.1026963-497.1026963z"  horiz-adv-x="1024" />

    
    <glyph glyph-name="icon" unicode="&#58897;" d="M938.97906568 847.05869376h-161.24826291c-7.61802885 33.01145461-38.09014143 58.40488322-73.64094089 58.4048832h-79.98929595c-10.15737088 25.39342855-34.28112846 41.8991545-62.213899 41.89915452s-52.05652535-16.50572871-62.21389626-41.89915452h-81.25896692c-35.55079946 0-66.02291205-25.39342855-73.64094091-58.4048832h-161.2482629c-41.8991545 0-73.64094092-34.28112846-73.64094091-76.18028292v-820.2077068c0-41.8991545 33.01145461-76.18028295 73.64094091-76.18028299h754.18479475c41.8991545 0 77.44995393 34.28112846 77.44995392 76.18028299v820.2077068c1.26967099 41.8991545-34.28112846 76.18028295-76.18028293 76.18028292z m-375.82272492-36.82047042c34.28112846 0 60.94422524-27.93277059 60.94422517-60.94422523 0-34.28112846-27.93277059-60.94422524-60.94422517-60.94422804-34.28112846 0-60.94422524 27.93277059-60.94422809 60.94422804s26.66309961 60.94422524 60.94422809 60.94422523z m232.34985894-631.0266733c0-15.23605771-12.69671286-27.93277059-27.93277063-27.93277067h-408.83417954c-15.23605771 0-27.93277059 12.69671286-27.93277064 27.93277067v25.39342851c0 15.23605771 12.69671286 27.93277059 27.93277064 27.93277061h408.83417954c15.23605771 0 27.93277059-12.69671286 27.93277063-27.93277061v-25.39342851z m0 257.74329039c0-15.23605771-12.69671286-27.93277059-27.93277063-27.93277068h-408.83417954c-15.23605771 0-27.93277059 12.69671286-27.93277064 27.93277068v25.3934257c0 15.23605771 12.69671286 27.93277059 27.93277064 27.9327706h408.83417954c15.23605771 0 27.93277059-12.69671286 27.93277063-27.9327706v-25.3934257z"  horiz-adv-x="1142" />

    
    <glyph glyph-name="jine" unicode="&#59042;" d="M364.2 607.7l315.3 0.9c14.6 1.7 68.2 63.5 80.6 128.7C772 799 736.2 818.6 646.6 818.6c-89.9 0-71.3-86.6-89.4-86.6-10.5 0-20 66.5-61 94.7-29.2 20.1-69.7-31.7-108.5-32.1-45.2-0.4-104.2 5.3-104.2-60.8 0-54.6 65.2-126.1 80.7-126.1z m-15.9 0c-11.7 0-21.3-5.1-21.3-11.2 0-6.2 9.5-11.2 21.3-11.2h327.4c11.8 0 21.3 5 21.3 11.2 0 6.1-9.5 11.2-21.3 11.2H348.3z m352-44.7H331c-119.8-69.7-221.6-205.6-221.6-384.3 0-197 190.2-242 407.3-242 217 0 397.9 47.2 397.9 244.3-0.1 165.5-87.9 308.7-214.3 382zM577 331.4c14.4 0 26-10.7 26-23.9s-11.6-23.9-26-23.9h-52v-23.9h52c14.4 0 26-10.7 26-23.9s-11.6-23.9-26-23.9h-52v-50.2c0-13.2-11.6-23.9-26-23.9-14.3 0-26 10.7-26 23.9V212h-52c-14.4 0-26 10.7-26 23.9s11.6 23.9 26 23.9h52v23.9h-52c-14.4 0-26 10.7-26 23.9s11.6 23.9 26 23.9h52v13.9l-72.9 64.8c-9.5 8.1-10.6 22.3-2.5 31.8 0.6 0.7 1.2 1.4 1.9 2 10.3 9.5 26.1 9.7 36.8 0.6l64.8-57.6 64.8 57.6c10.6 9.1 26.4 8.9 36.8-0.6 10-9.5 9.7-24.6-0.6-33.8l-76.9-68.3v-10.4l51.8-0.1z"  horiz-adv-x="1024" />

    
    <glyph glyph-name="alipay1" unicode="&#58904;" d="M492.343 118.48900000000003c-67.093-32.018-144.129-51.939-227.552-32.27-83.424 19.678-142.626 73.023-132.453 171.512 10.192 98.496 115.478 132.461 202.07 132.461 86.622 0 250.938-56.122 250.938-56.122s13.807 30.937 27.222 66.307c13.405 35.365 17.21 63.785 17.21 63.785H279.869v35.067h169.995v67.087l-211.925-1.526v44.218h211.925v100.63h111.304v-100.629H788.35v-44.218l-227.181-1.524v-62.511l187.584-1.526s-3.391-35.067-27.17-98.852c-23.755-63.783-46.061-96.312-46.061-96.312L960 210.721V652.8C960 751.769 879.769 832 780.8 832H243.2C144.231 832 64 751.769 64 652.8v-537.6C64 16.230999999999995 144.231-64 243.2-64h537.6c82.487 0 151.773 55.806 172.624 131.668L625.21 223.25599999999997s-65.782-72.748-132.867-104.767zM297.978 336.129c-104.456-6.649-129.974-52.605-129.974-94.891s25.792-101.073 148.548-101.073c122.727 0 226.909 123.77 226.909 123.77s-141.057 78.842-245.483 72.194z"  horiz-adv-x="1024" />

    
    <glyph glyph-name="zhifupingtai-yinlian" unicode="&#58907;" d="M342.874353 78.456471l87.341176 376.470588h-3.011764c-3.011765 0-7.529412-1.505882-10.541177-3.011765-1.505882-7.529412-6.023529-28.611765-9.035294-37.647059-4.517647-19.576471-4.517647-22.588235-6.023529-33.129411l-1.505883-1.505883h-37.647058l-1.505883 1.505883 9.035294 36.141176c7.529412 33.129412 9.035294 45.176471 12.047059 61.741176l1.505882 1.505883c16.564706 3.011765 21.082353 3.011765 40.658824 6.023529l1.505882-1.505882-3.011764-10.541177c3.011765 1.505882 6.023529 4.517647 9.035294 6.02353 1.505882 1.505882 3.011765 1.505882 6.023529 3.011765l45.176471 191.247058c9.035294 42.164706 51.2 75.294118 91.858823 75.294118h-274.070588c-42.164706 0-82.823529-33.129412-91.858823-75.294118l-138.541177-596.329411c-9.035294-42.164706 16.564706-75.294118 57.223529-75.294118h272.564706c-42.164706 0-67.764706 34.635294-57.223529 75.294118z m-27.105882 313.223529c-13.552941-7.529412-33.129412-12.047059-54.211765-12.047059-16.564706 0-45.176471 3.011765-54.211765 19.576471-4.517647 6.023529-6.023529 12.047059-6.023529 19.57647l3.011764 27.105883 1.505883 7.529411 22.588235 97.882353 1.505882 6.02353s7.529412-1.505882 49.694118 0v-1.505883c-4.517647-12.047059-25.6-97.882353-25.6-97.882352l-4.517647-25.6v-4.517648c1.505882-12.047059 9.035294-19.576471 22.588235-19.57647 9.035294 0 15.058824 3.011765 22.588236 7.529412 10.541176 9.035294 13.552941 22.588235 18.070588 42.164706 0 0 21.082353 94.870588 21.082353 100.894117 3.011765 0 12.047059-1.505882 42.164706 0v-1.505882c-4.517647-12.047059-25.6-102.4-25.6-102.4l-3.011765-9.035294c-3.011765-19.576471-9.035294-40.658824-31.623529-54.211765zM669.650824 78.456471l22.588235 99.388235H665.133176c-4.517647 0-7.529412 0-10.541176 1.505882-3.011765 1.505882-6.023529 4.517647-6.023529 7.529412s1.505882 7.529412 3.011764 13.552941l46.682353 153.6h33.129412l-4.517647-16.564706 4.517647 4.517647 9.035294 37.647059h-21.082353v1.505883c1.505882 6.023529 3.011765 13.552941 4.517647 19.57647l1.505883 9.035294c3.011765 13.552941 6.023529 30.117647 6.023529 36.141177 0 3.011765 1.505882 10.541176-7.529412 10.541176-3.011765 0-7.529412-1.505882-12.047059-3.011765-1.505882-7.529412-6.023529-28.611765-9.035294-37.647058-4.517647-19.576471-4.517647-22.588235-6.023529-33.129412l-1.505882-1.505882h-37.647059l-1.505883 1.505882 9.035294 36.141176c7.529412 33.129412 9.035294 45.176471 10.541177 61.741177l1.505882 1.505882c16.564706 3.011765 21.082353 3.011765 40.658824 6.02353l1.505882-1.505883-3.011765-10.541176c3.011765 1.505882 6.023529 4.517647 9.035295 6.023529 9.035294 4.517647 18.070588 6.023529 24.094117 6.02353 4.517647 0 9.035294 0 13.552941-3.011765l43.670589 191.247059c9.035294 42.164706 51.2 75.294118 93.364706 75.294117h-326.776471c-42.164706 0-82.823529-33.129412-91.858824-75.294117l-43.670588-191.247059c7.529412 3.011765 13.552941 3.011765 18.070588 3.011765 7.529412 0 16.564706-3.011765 21.082353-12.047059 3.011765-9.035294 1.505882-19.576471-3.011764-39.152941l-3.011765-10.541177c-4.517647-22.588235-6.023529-27.105882-7.529412-42.164706l-4.517647-4.517647h-37.647059v1.505883c1.505882 6.023529 3.011765 13.552941 4.517647 19.57647l1.505883 9.035294c3.011765 13.552941 6.023529 30.117647 6.023529 36.141177 0 3.011765 1.505882 9.035294-4.517647 10.541176l-87.341176-376.470588c-9.035294-42.164706 16.564706-75.294118 57.223529-75.294118h328.282353c-40.658824-1.505882-66.258824 33.129412-57.223529 73.788236z m12.047058 263.529411l-7.529411-24.094117h-52.705883l-6.023529-4.517647c-3.011765-3.011765-3.011765-1.505882-6.02353-3.011765s-9.035294-4.517647-18.070588-4.517647h-16.564706l7.529412 22.588235h4.517647c4.517647 0 7.529412 0 9.035294 1.505883 1.505882 1.505882 3.011765 3.011765 6.02353 7.529411l9.035294 18.070589h39.152941l-6.023529-13.552942h37.647058z m-140.047058 124.988236l-7.529412-30.117647c-1.505882-6.023529-3.011765-13.552941-4.517647-19.576471-3.011765-13.552941-4.517647-19.576471-6.02353-22.588235-1.505882-3.011765-1.505882-6.023529-3.011764-13.552941h-43.670589c1.505882 7.529412 3.011765 10.541176 4.517647 13.552941s1.505882 6.023529 4.517647 13.552941c3.011765 10.541176 4.517647 18.070588 6.02353 25.6 1.505882 6.023529 4.517647 24.094118 6.023529 30.117647-1.505882 4.517647 1.505882 9.035294 7.529412 13.552941 9.035294 6.023529 22.588235 7.529412 31.623529 3.011765 6.023529-3.011765 7.529412-9.035294 4.517648-13.552941z m7.529411-34.635294c3.011765 13.552941 9.035294 28.611765 19.576471 39.152941 16.564706 15.058824 36.141176 15.058824 45.17647 15.058823 13.552941 0 28.611765-3.011765 36.141177-13.552941 4.517647-6.023529 9.035294-18.070588 4.517647-40.658823-1.505882-7.529412-6.023529-24.094118-16.564706-34.635295-13.552941-13.552941-30.117647-18.070588-48.188235-18.070588-6.023529 0-16.564706 1.505882-24.094118 4.517647-22.588235 9.035294-19.576471 33.129412-16.564706 48.188236z m81.317647-254.494118h-43.670588c-3.011765 0-6.023529 0-10.541176 1.505882-3.011765 1.505882-6.023529 3.011765-7.529412 4.517647-1.505882 3.011765-4.517647 4.517647-3.011765 10.541177l12.047059 42.164706h-21.082353l7.529412 24.094117h21.082353l6.023529 19.576471h-21.082353l7.529412 22.588235h94.870588l-7.529412-22.588235h-37.647058l-6.02353-19.576471h39.152941l-6.023529-24.094117h-39.152941l-9.035294-31.62353c-1.505882-3.011765 9.035294-4.517647 13.552941-4.517647l19.57647 3.011765-9.035294-25.6zM723.862588 329.938824l-7.529412-25.6s3.011765 1.505882 6.02353 4.517647l4.517647 21.082353h-3.011765z m-129.505882 72.282352c4.517647 0 7.529412 3.011765 10.541176 7.529412 4.517647 6.023529 7.529412 21.082353 9.035294 24.094118 4.517647 18.070588 3.011765 28.611765-6.023529 28.611765-12.047059 0-16.564706-15.058824-21.082353-31.62353-1.505882-6.023529-3.011765-12.047059-3.011765-16.564706 3.011765-12.047059 10.541176-12.047059 10.541177-12.047059z m94.870588-189.741176c-1.505882-4.517647-1.505882-7.529412-1.505882-7.529412 1.505882-1.505882 3.011765-3.011765 4.517647-3.011764h4.517647l13.552941 58.729411h-7.529412l-13.552941-48.188235z m24.094118 81.317647l-3.011765-10.541176h7.529412l3.011765 10.541176h-7.529412zM967.815529 402.221176c4.517647 0 12.047059 3.011765 15.058824 7.529412 1.505882 1.505882 3.011765 6.023529 4.517647 9.035294 1.505882 4.517647 3.011765 10.541176 3.011765 15.058824 1.505882 3.011765 1.505882 6.023529 1.505882 9.035294 1.505882 12.047059-3.011765 19.576471-10.541176 19.576471-12.047059 0-16.564706-15.058824-21.082353-31.62353-1.505882-6.023529-3.011765-12.047059-3.011765-16.564706 3.011765-12.047059 10.541176-12.047059 10.541176-12.047059z m-203.294117-118.964705l3.011764 10.541176h-48.188235l-3.011765-10.541176h40.658824c6.023529 0 7.529412-1.505882 7.529412 0zM1198.215529 748.574118h-296.658823c-42.164706 0-82.823529-33.129412-93.364706-75.294118l-43.670588-191.247059c3.011765-1.505882 6.023529-4.517647 7.529412-9.035294 3.011765-9.035294 1.505882-19.576471-3.011765-39.152941l-3.011765-10.541177c-4.517647-22.588235-6.023529-27.105882-7.529412-42.164705l-1.505882-1.505883h-16.564706l-9.035294-37.647059c3.011765 3.011765 9.035294 6.023529 12.047059 7.529412 7.529412 3.011765 24.094118 6.023529 24.094117 6.02353h52.705883l-18.070588-60.235295c-3.011765-10.541176-6.023529-16.564706-9.035295-19.57647-1.505882-3.011765-4.517647-6.023529-9.035294-9.035294-4.517647-3.011765-9.035294-4.517647-12.047058-4.517647h-60.235295l-13.552941-58.729412 18.070588 1.505882-7.529411-27.105882h-15.058824l-24.094117-99.388235c-9.035294-42.164706 16.564706-75.294118 57.223529-75.294118h296.658823c42.164706 0 82.823529 33.129412 93.364706 75.294118l138.541177 594.823529c9.035294 42.164706-16.564706 75.294118-57.22353 75.294118z m-212.329411-263.529412c6.023529-3.011765 10.541176-6.023529 13.552941-10.541177v4.517647l1.505882 1.505883c18.070588 3.011765 22.588235 3.011765 42.164706 6.023529v-1.505882c-3.011765-13.552941-7.529412-28.611765-10.541176-42.164706-7.529412-30.117647-9.035294-45.176471-12.047059-60.235294l-1.505883-1.505882h-39.152941l-1.505882 1.505882c0 1.505882 1.505882 4.517647 1.505882 6.023529-6.023529-4.517647-12.047059-9.035294-19.57647-9.035294s-13.552941 1.505882-21.082353 4.517647c-22.588235 9.035294-19.576471 34.635294-16.564706 48.188236 3.011765 13.552941 9.035294 28.611765 19.57647 39.152941 16.564706 13.552941 34.635294 16.564706 43.670589 13.552941z m-204.8-105.411765l28.611764 118.964706 12.047059 54.211765s1.505882 4.517647 1.505883 6.023529c6.023529 0 18.070588-1.505882 51.2 0h12.047058c25.6 0 46.682353 0 58.729412-15.058823 4.517647-6.023529 6.023529-13.552941 6.02353-21.082353 0-6.023529-1.505882-12.047059-1.505883-16.564706-4.517647-19.576471-15.058824-36.141176-28.611765-46.682353-21.082353-16.564706-49.694118-16.564706-73.788235-16.564706h-3.011765l-3.011764-3.011765c0-1.505882-6.023529-24.094118-6.02353-24.094117s-6.023529-31.623529-7.529411-37.647059c-7.529412 1.505882-19.576471 1.505882-46.682353 1.505882z m10.541176-137.035294c-1.505882-4.517647-3.011765-7.529412-6.023529-10.541176-3.011765-3.011765-7.529412-6.023529-18.070589-6.02353h-18.070588v-16.564706c0-4.517647 1.505882-4.517647 1.505883-4.517647s1.505882-1.505882 3.011764-1.505882h6.02353l18.070588 1.505882-9.035294-27.105882h-19.576471c-13.552941 0-24.094118 0-28.611764 3.011765-3.011765 1.505882-4.517647 4.517647-3.011765 9.035294l1.505882 64.752941h31.62353v-13.552941h7.529411c3.011765 0 4.517647 0 6.02353 1.505882 1.505882 1.505882 1.505882 1.505882 1.505882 3.011765l3.011765 10.541176h25.6l-3.011765-13.552941z m111.435294-64.752941h-34.635294l3.011765 7.529412h-69.270588l7.529411 22.588235h7.529412l36.141177 121.976471 7.529411 24.094117h34.635294l-3.011764-12.047059s9.035294 6.023529 18.070588 9.035294c7.529412 1.505882 43.670588 3.011765 55.717647 3.011765h37.647059v-13.552941c0-3.011765 1.505882-3.011765 6.023529-3.011765h6.02353l-6.02353-24.094117h-19.57647c-18.070588-1.505882-24.094118 6.023529-24.094118 15.058823v13.552941l-3.011765-12.047058h-12.047058l-36.141177-120.470589h9.035294l-7.529412-24.094117h-10.541176l-3.011765-7.529412z m155.105883 106.917647h-37.647059l-6.02353-19.576471h37.647059l-6.023529-19.57647h-40.658824l-7.529412-9.035294h16.564706l4.517647-25.6c0-3.011765 0-4.517647 1.505883-6.02353 1.505882-1.505882 6.023529-1.505882 9.035294-1.505882h4.517647l-7.529412-25.6h-21.082353c-4.517647 0-6.023529 3.011765-9.035294 4.517647-3.011765 1.505882-6.023529 4.517647-6.023529 9.035294l-4.517647 25.6-18.070589-25.6c-6.023529-7.529412-13.552941-13.552941-27.105882-13.552941h-25.6l7.529412 22.588235h10.541176c3.011765 0 6.023529 1.505882 7.529412 1.505883 1.505882 1.505882 3.011765 1.505882 6.023529 4.517647l27.105883 37.647058h-36.141177l6.02353 21.082353h40.658823l6.02353 19.576471h-40.658824l7.529412 22.588235h112.941176l-12.047058-22.588235z m24.094117 70.776471l-1.505882-1.505883-15.058824-25.6c-4.517647-9.035294-13.552941-15.058824-27.105882-15.058823h-22.588235l7.529411 22.588235h4.517648c3.011765 0 4.517647 0 6.023529 1.505882 1.505882 0 1.505882 1.505882 3.011765 3.011765l7.529411 13.552941c12.047059 18.070588 15.058824 25.6 27.105883 45.176471-1.505882 22.588235-3.011765 30.117647-4.517647 43.670588-1.505882 9.035294-3.011765 18.070588-3.011765 27.105882-1.505882 18.070588-1.505882 15.058824-4.517647 27.105883v1.505882l1.505882 1.505882c18.070588 1.505882 18.070588 3.011765 37.647059 6.02353l1.505882-1.505883 3.011765-49.694117v-3.011765c10.541176 22.588235 10.541176 16.564706 22.588235 45.176471v1.505882l1.505883 1.505882c16.564706 1.505882 19.576471 3.011765 39.152941 6.02353l1.505882-1.505883c-1.505882 0-75.294118-128-85.835294-149.082352zM775.062588 316.385882l4.517647 13.552942h-51.2l-4.517647-21.082353c7.529412 4.517647 15.058824 7.529412 22.588236 7.529411h28.611764z m105.411765 159.62353c10.541176 4.517647 18.070588 15.058824 19.576471 27.105882 3.011765 13.552941-1.505882 22.588235-10.541177 27.105882l-25.6 1.505883h-4.517647V527.209412l-12.047059-52.705883v-3.011764h6.02353c9.035294 0 19.576471 0 27.105882 4.517647z m-28.611765-266.541177h28.611765l7.529412 27.105883h-28.611765l-7.529412-27.105883z m36.141177 120.470589l-9.035294-30.117648s10.541176 4.517647 16.564705 6.02353c6.023529 1.505882 15.058824 1.505882 15.058824 1.505882l6.023529 22.588236h-28.611764z m-24.094118-76.8s10.541176 6.023529 16.564706 7.529411c6.023529 1.505882 15.058824 3.011765 15.058823 3.011765l7.529412 22.588235h-28.611764l-10.541177-33.129411z"  horiz-adv-x="1325" />

    
    <glyph glyph-name="zhifupingtai-weixin" unicode="&#58912;" d="M548.141176 278.588235c-3.011765-3.011765-9.035294-3.011765-13.552941-3.011764-10.541176 0-19.576471 6.023529-24.094117 15.058823l-3.011765 3.011765-76.8 167.152941c-1.505882 3.011765-1.505882 3.011765-1.505882 6.023529 0 7.529412 6.023529 15.058824 15.058823 15.058824 3.011765 0 6.023529-1.505882 9.035294-3.011765l90.352941-64.752941c6.023529-4.517647 15.058824-7.529412 22.588236-7.529412 4.517647 0 9.035294 1.505882 15.058823 3.011765l426.164706 188.235294C929.129412 686.682353 804.141176 745.411765 662.588235 745.411765c-231.905882 0-421.647059-156.611765-421.647059-349.364706 0-105.411765 57.223529-198.776471 146.070589-262.02353 7.529412-4.517647 12.047059-13.552941 12.047059-22.588235 0-3.011765-1.505882-6.023529-1.505883-9.035294-7.529412-25.6-18.070588-67.764706-19.57647-70.776471-1.505882-3.011765-3.011765-7.529412-3.011765-10.541176 0-7.529412 6.023529-15.058824 15.058823-15.058824 3.011765 0 6.023529 1.505882 9.035295 3.011765l93.364705 52.705882c7.529412 3.011765 15.058824 6.023529 22.588236 6.02353 4.517647 0 9.035294-1.505882 12.047059-3.011765 43.670588-12.047059 88.847059-19.576471 137.035294-19.57647 231.905882 0 421.647059 156.611765 421.647058 349.364705 0 58.729412-16.564706 112.941176-48.188235 161.129412L549.647059 281.6l-1.505883-3.011765z"  horiz-adv-x="1325" />

    
    <glyph glyph-name="yunshanfu" unicode="&#59038;" d="M963.048 308.322c-1.803-59.98-26.607-106.786-76.222-139.504-26.156-17.265-55.021-24.991-86.592-25.447-44.65-0.45-88.85-0.45-133.5-0.45-44.65-0.455-89.753-0.455-134.403-0.91-64.944-0.91-129.892-0.91-195.287-0.91-37.433 0-75.318-0.91-112.756-0.91-34.276 0-65.847 9.997-93.357 29.992C91.691 197.9 68.693 236.07 62.38 283.782c-9.472 73.162 28.86 141.775 96.062 172.672 30.673 14.088 63.142 17.725 96.519 11.818 7.664-1.365 7.664-1.365 9.471 5.907 15.334 63.16 52.316 109.057 110.95 135.408 57.278 26.357 115.005 23.631 171.384-4.995 29.764-14.995 53.67-37.26 72.161-65.437 2.706-4.086 4.96-5.906 10.822-5.452 31.124 4.092 61.34-0.454 90.205-14.538 21.647-10.452 39.687-24.992 54.574-43.626 2.705-3.631 5.41-2.27 8.567-2.27 24.353 1.82 48.26-0.456 71.71-9.088 35.179-12.723 62.693-35.444 82.986-66.797 13.532-20.905 21.648-44.075 24.358-69.067 0.447-5.911 0.447-12.727 0.9-19.995zM466.032 353.31c1.355 0.905 2.254 1.36 3.157 1.36 41.042 14.088 78.927 59.98 77.125 111.328-1.355 28.628-13.983 49.532-40.59 60.89-24.359 9.997-49.163 9.997-73.968 1.365-49.163-17.269-79.378-51.348-87.048-103.606-2.253-15.904-0.447-31.352 8.121-45.437 9.02-14.997 22.552-24.085 38.337-30.447 27.962-10.903 56.376-21.355 84.337-32.263 2.705-0.91 6.766-0.91 5.41-5.906-2.705-8.632-0.446-7.727-8.115-7.727-18.04 0-36.082 0-54.122-0.45-7.665 0-7.665-0.455-9.471-8.182-1.35-5.907-1.35-5.907 4.963-5.907h58.178c3.157 0 4.061-0.91 3.157-4.09-4.96-21.356-9.47-42.712-14.43-64.071-0.904-4.997-4.06-7.723-9.02-7.723-5.415-0.455-10.826-0.455-16.688-0.91-0.903 0-2.706 0.455-2.254-1.816 1.35-4.09 2.254-8.636 4.959-12.723 1.802-2.726 5.41-0.91 8.116-0.91 4.513 0 8.572 0 13.08 0.91 10.375 1.816 19.394 7.722 22.1 19.54 4.06 20.445 9.02 40.896 13.983 61.341 2.254 9.997 2.254 9.997 12.628 9.997 12.177 0 9.472-2.27 12.628 10.907 0.452 2.726 0 3.637-2.705 3.637h-13.983c-2.705 0-3.157 0.45-2.254 3.18 2.254 9.542 4.508 19.085 6.766 28.172 1.35 4.997 0 6.817-4.963 8.178-13.08 4.09-24.806 7.726-37.434 11.363z m88.85-44.987h-17.588c-3.157 0-4.511-1.365-5.414-4.546-7.214-32.263-14.431-64.976-21.65-97.24-0.902-3.18 0.453-4.09 3.159-4.09h15.333c2.71 0 4.06 0.91 4.512 3.636 2.705 11.813 5.41 23.626 7.67 35.443 0.898 3.181 2.253 4.542 5.41 4.542 6.314 0 12.629-0.455 18.49 1.365 14.882 3.636 27.51 10.903 33.373 25.902 5.868 15.449-1.35 29.082-17.135 33.168-8.121 2.275-17.14 1.82-26.16 1.82z m242.642 27.262c-7.665 12.724-14.881 24.991-22.099 37.264-1.35 2.271-1.35 3.631 0.903 4.997 8.12 6.816 16.238 13.633 24.354 19.994 1.806 1.816 4.06 3.637 6.314 5.908-13.076 1.814-25.257 2.27-33.825-9.089-2.705-3.18-6.314-5.906-9.47-8.636-2.254-1.816-4.508-4.542-7.665-5.906 4.507 20.905 9.019 40.895 13.527 61.345 0.903 4.545-0.452 4.997-4.057 4.545-4.06-0.91-8.12-1.364-12.18-1.364-4.508 0-5.41-2.271-6.315-6.363-2.705-12.722-5.862-25.9-8.568-38.624l-13.531-61.345c-0.899-3.18 0-4.086 3.157-4.086h13.08c3.61-0.456 5.415 0.905 6.315 4.996 1.805 9.088 4.06 17.724 6.313 27.717 6.314-10.903 11.73-20.9 17.14-30.443 0.904-1.815 1.803-4.09 4.508-3.18 6.314 1.365 13.983 0 22.1 2.27z m-508.288-13.178s0-0.455 0 0a658.819 658.819 0 0 0-42.397 0c-5.862 0-8.568-1.36-9.02-7.268-0.902-5.91-1.35-5.91 4.965-5.91h68.1c2.705 0 4.963 0.454 4.06-3.631-6.313-28.178-12.628-55.894-18.942-84.066-1.807-7.727-4.512-9.543-12.177-9.998h-4.512c-12.628 0-12.176 0-8.116-11.813 0.9-3.18 2.705-4.09 5.41-4.09 5.864 0 11.275 0.454 17.141 0.91 11.273 1.36 19.39 8.631 22.1 19.995 7.664 33.623 14.882 67.247 22.998 100.874 0.903 4.542-0.451 4.997-4.056 4.997h-45.554z m82.535-48.618c-5.862-24.54-10.826-48.167-16.688-71.797-0.903-4.09-0.903-6.362 4.512-5.907 3.157 0.455 6.314 0 9.922-0.455 3.605 0 5.864 1.365 6.762 5.452 6.767 31.358 13.983 62.255 20.75 93.153 0.451 2.271 1.354 4.545 3.156 6.361 6.314 7.727 12.629 16.36 18.04 24.537 1.806 2.73 1.354 4.09-1.803 5-3.608 0.91-7.669 2.272-11.277 3.636-2.706 0.91-4.057 0.456-5.411-1.82-11.273-19.99-27.511-34.988-45.554-48.617-10.821-7.727-10.821-7.272-4.056-18.634 1.35-2.27 2.705-2.726 4.96-1.361 4.963 4.091 10.374 7.272 16.687 10.452z m208.368 65.887c-2.254-6.817 1.354-6.817 4.962-6.362 3.605 0.455 7.665 0.455 11.275 0.455 2.254 0 3.608 0.456 4.51 3.182 4.509 21.355 9.473 42.26 13.98 63.16 0.452 2.726-0.451 3.18-2.705 3.18-4.512 0-8.569-0.454-13.08 0-4.508 0.457-6.315-1.814-7.218-5.906-2.705-12.723-5.41-25.446-8.567-38.169-1.803-7.272-7.218-11.362-14.431-11.362-6.766 0-9.471 3.18-8.121 9.996 2.705 13.635 5.863 27.268 9.02 40.445 0.903 4.087 0 4.997-4.056 4.997-4.513-0.455-9.47 0-13.983 0-2.254 0-3.157-0.455-4.061-3.181-3.604-16.359-7.665-32.718-10.822-49.077-2.254-10.903 4.508-18.63 15.786-19.084 9.923-0.45 18.04 2.73 27.51 7.726z m63.14-135.864h8.121c2.254 0 4.96-0.455 4.508 3.631-0.452 2.275 0 4.546 0 6.817 0 0.455 0.451 0.91 0.451 1.365 2.706 11.814 5.411 24.081 8.117 35.9 2.71 12.267-2.254 20.444-14.882 22.715-13.08 2.275-26.16-0.45-38.337-5.452-1.35-0.454-2.705-1.36-2.705-3.18 0-7.723 1.807-9.087 9.02-7.272 2.257 0.455 4.511 1.365 6.314 1.82 4.06 0.455 8.12 0.91 12.177 0 4.06-0.91 6.313-3.635 5.866-7.727 0-4.541-2.71-5.451-6.766-5.451-4.511 0-9.019-0.455-13.531-0.91-13.983-1.36-26.16-10.903-29.317-22.72-3.157-10.449 1.355-18.176 11.73-20.902 8.568-2.27 15.784 0 23.449 3.637 2.254 1.36 4.512 2.726 4.964-1.366 0.448-1.815 2.254-1.36 3.605-1.36 3.157 0 5.866 0.455 7.216 0.455z m-439.735 13.174c1.354 0.91 2.705 1.364 3.608 2.275 13.531 8.632 26.16 18.174 36.982 29.533 2.705 2.73 4.06 2.73 6.766 0 7.67-8.177 15.334-15.904 22.1-24.536 2.705-3.637 4.511-3.182 7.217-0.456 2.705 2.726 4.96 5.001 8.116 7.272 2.705 2.27 2.705 3.635 0 6.361-8.568 8.633-17.136 17.27-26.156 24.992-3.156 2.726-3.156 4.09-0.902 7.272 4.506 5.906 8.116 12.722 10.821 19.54 1.355 2.725 0.903 4.085-1.802 4.996-4.06 1.365-8.117 2.726-12.177 4.545-2.706 0.907-4.06 0.456-5.411-2.274-2.709-5.451-5.867-10.904-9.024-16.355-11.724-18.179-27.058-32.718-44.2-45.442-1.35-1.364-4.506-1.819-3.156-4.545 1.807-3.636 3.61-7.267 5.863-10.903 0-1.365 0.903-1.82 1.355-2.275z m484.386-14.54c12.629-0.454 23.003 3.637 31.12 12.724 9.47 10.907 7.669 22.265-4.508 29.537-3.609 2.271-8.12 4.087-11.73 6.362-1.802 1.36-4.056 2.726-3.604 5.452 0.448 2.726 3.158 4.09 5.863 4.545 3.608 0.451 6.765 0.451 10.37-0.455 9.024-2.726 9.024-2.275 13.983 5.452 0 0.454 0.452 0.454 0.452 0.91 1.802 2.27 1.802 4.086-1.356 4.996-11.724 4.546-23.901 5.451-35.626-0.455-9.024-4.542-14.887-11.358-14.887-21.81-0.451-9.998 6.766-14.995 14.436-18.63 2.254-1.365 4.507-2.271 6.765-4.09 1.802-1.362 4.056-2.271 3.605-5.452-0.447-3.182-2.706-4.091-5.411-4.996-4.96-1.366-9.472 0.45-14.431 1.36-3.157 0.454-6.765 4.546-9.47 2.27-2.71-1.816-4.062-5.906-6.316-8.632-1.805-2.725-1.354-3.636 1.351-4.996 6.314-2.726 13.08-4.092 19.394-4.092z m82.536 73.16c-7.218 0.454-14.43-1.366-20.745-5.907-7.217-5.452-11.73-12.268-11.278-21.355 0.452-8.638 6.315-12.724 13.08-16.36 2.706-1.365 5.411-3.181 8.117-4.545 2.258-1.362 4.06-2.726 3.156-5.907-0.898-2.726-3.156-4.091-5.862-4.091-4.508-0.455-9.47 0-13.978 1.365-9.923 3.181-9.923 3.181-15.334-5.907-1.807-2.726-1.807-4.545 1.35-5.456 2.706-0.905 5.412-2.27 8.121-2.726 15.786-3.635 30.216-1.36 41.489 10.908 9.472 10.452 8.12 22.266-4.055 29.537-3.61 2.27-7.67 4.087-11.28 6.362-2.252 1.36-4.506 2.726-4.054 5.452 0.447 3.18 2.705 4.09 5.41 4.996 5.411 1.365 10.375 0 14.883-1.816 1.354-0.455 3.157-2.27 4.511-0.455 2.254 3.636 5.862 6.816 6.766 11.358 0.447 1.366-1.806 1.366-2.71 1.82-4.959 1.816-10.821 2.726-17.587 2.726z m-62.69 129.956c-21.648 0.455-41.042-11.357-48.26-29.987-7.668-18.63-1.801-37.715 20.75-42.26 9.02-1.816 18.039-0.91 27.058 1.815 9.02 2.73 8.569 2.73 6.766 11.817-0.451 2.726-1.354 3.182-4.06 2.271-4.507-1.816-9.02-1.816-13.532-2.27-9.02-0.455-15.786 5.907-16.233 14.994-0.902 17.72 13.98 30.442 33.374 28.171 2.705-0.455 5.862-3.635 8.567-0.91 2.259 2.276 3.157 5.456 4.964 8.637v0.455c1.803 2.727 0.452 3.632-1.807 4.542-6.313 2.27-12.176 2.725-17.586 2.725zM176.035 197.45h4.96c3.607-0.456 4.962 0.905 5.861 4.54 6.766 30.899 13.532 61.8 20.75 92.7 0.898 3.18 0.451 4.545-3.158 4.545h-11.73c-2.705 0-4.056-0.456-4.959-3.636-6.765-29.537-13.531-58.62-20.298-88.157-2.252-9.992-2.252-9.992 8.574-9.992z m451.008 136.774h7.67c2.705 0 3.608 0.905 4.06 3.18 4.507 20.901 9.02 41.805 13.528 62.251 0.903 3.18 0 4.092-3.157 4.092-4.057 0-8.118-0.456-11.726 0-5.41 0.91-6.765-1.821-7.67-6.363-3.603-17.723-7.664-35.443-11.724-53.163-1.802-10.453-1.802-10.453 9.02-9.997z m-177.699-97.7c-0.447 1.366-0.898 2.276-1.35 3.637-3.608 9.997-8.12 19.085-13.531 27.717-6.315 9.541-2.706 8.636-13.532 3.635-1.35-0.905-3.157-1.815-4.508-2.27-1.807-0.91-2.705-1.816-1.807-4.091 5.416-10.448 9.472-21.81 13.08-33.17 0.452-1.819 1.356-2.725 3.61-2.274 4.962 1.82 10.374 3.181 15.333 4.546 1.355 0.91 2.705 0.454 2.705 2.27z m-219.188 74.07c-0.451 0.454-0.903 1.364-1.807 2.27-4.507 5.456-9.019 10.453-13.531 15.453-9.02 9.993-9.02 9.542-19.841 1.36-2.258-1.815-2.258-2.725-0.451-4.996 4.06-4.546 7.664-9.998 11.724-14.543 3.157-3.181 4.06-9.997 9.02-9.997 4.512 0.454 8.572 4.546 12.628 6.816 0.451 0.456 0.904 0.456 1.355 0.91 0.903 1.36 1.35 1.815 0.903 2.726z m415.83 106.786c6.766 0 13.984 6.811 13.531 13.174 0 5-4.06 8.636-9.47 8.636-6.767 0-13.532-6.817-13.532-12.723 0-5.456 4.06-9.087 9.47-9.087z m-143.419 39.074c-2.71-34.078-15.785-62.25-47.808-78.154-10.826-5.452-22.55-7.272-34.727-4.547-17.14 3.182-29.769 16.36-31.57 34.084-4.061 36.35 9.019 65.887 38.783 86.788 12.628 9.09 27.063 11.817 42.397 9.541 18.04-2.725 31.57-18.63 32.925-38.169 0.448-3.18 0-6.362 0-9.543z m46.905-194.938c-2.254-0.451-3.608 1.365-2.254 5.911 1.802 6.812 3.157 13.629 4.508 20.445 0.451 3.182 1.807 5.451 5.862 5.001 1.807-0.455 3.608 0 4.964 0 5.41-0.455 10.821-1.82 13.08-7.727 2.254-5.906 0-10.452-3.608-14.993-5.416-6.362-12.629-7.727-22.552-8.637z m88.849-26.808c-0.451-1.819-0.903-4.09-0.903-5.906-1.802-8.636-11.273-14.543-20.297-12.267-4.056 0.905-5.41 3.63-4.056 7.722 1.351 4.545 4.508 6.816 8.568 8.182 5.41 2.27 10.826 3.18 16.688 2.27z"  horiz-adv-x="1024" />

    
    <glyph glyph-name="zhengzhouyinhangAPPtubiaodiergaolunkuohuachunse-34" unicode="&#59039;" d="M710.5 353.79999999999995c-61.9 0-112.2-49.6-112.2-110.5s50.3-110.5 112.2-110.5c61.9 0 112.2 49.6 112.2 110.5s-50.3 110.5-112.2 110.5z m0-202.2c-51.3 0-93 41.1-93 91.6s41.7 91.6 93 91.6 93-41.1 93-91.6-41.7-91.6-93-91.6zM769 259.9c0 5.2-4.3 9.4-9.6 9.4h-25.7l27.1 26.7c3.7 3.7 3.7 9.7 0 13.4-3.7 3.7-9.8 3.7-13.6 0l-37-36.4-37 36.4c-3.7 3.7-9.8 3.7-13.6 0-3.7-3.7-3.7-9.7 0-13.4l27.1-26.7h-25.2c-5.3 0-9.6-4.2-9.6-9.4s4.3-9.4 9.6-9.4h38.8V232.29999999999995h-38.7c-5.3 0-9.6-4.2-9.6-9.4s4.3-9.4 9.6-9.4h38.7v-29.7c0-5.2 4.3-9.4 9.6-9.4s9.6 4.2 9.6 9.4v29.7h39.8c5.3 0 9.6 4.2 9.6 9.4s-4.3 9.4-9.6 9.4h-39.8v18.1 0.1h39.8c5.4 0 9.7 4.2 9.7 9.4zM814.4 435.7c-29.3 31.1-67.7 50.3-109.3 54.9-15.2 86-88.8 149.4-175.7 149.4-44.6 0-87.3-16.8-120.2-47.4-29-26.9-48.3-62.5-55.4-101.4-5.1 0.4-10.2 0.7-15.3 0.7-98.4 0-178.5-81.6-178.5-181.9 0-48.4 18.5-94 52-128.3 33.5-34.3 78.2-53.4 125.7-53.6h248.2c7.9 0 14.4 6.3 14.4 14.2 0 7.8-6.4 14.2-14.4 14.2H338.1c-82.4 0.2-149.4 69.1-149.4 153.5 0 84.7 67.2 153.6 149.8 153.6 8.4 0 16.8-0.7 25.1-2.2 3.9-0.7 8 0.3 11.2 2.7 3.2 2.4 5.2 6 5.6 9.9 7.8 78.6 71.8 137.8 149 137.8 76.1 0 140-58.4 148.7-135.8 0.8-6.9 6.6-12.3 13.7-12.6 80.4-3.4 143.4-70.8 143.4-153.4 0-7.8 6.4-14.2 14.4-14.2S864 302.1 864 310c0 47-17.6 91.7-49.6 125.7z"  horiz-adv-x="1024" />

    
    <glyph glyph-name="quan" unicode="&#59201;" d="M510.959 825.666c-243.334 0-440.596-197.245-440.596-440.597 0-243.319 197.264-440.596 440.596-440.596 243.317 0 440.597 197.275 440.597 440.596-0.001 243.353-197.28 440.597-440.597 440.597v0zM510.959 12.171c-205.936 0-372.902 166.943-372.902 372.897 0 205.961 166.965 372.902 372.902 372.902 205.959 0 372.901-166.943 372.901-372.902 0-205.953-166.943-372.897-372.901-372.897v0zM510.959 12.171z"  horiz-adv-x="1024" />

    
    <glyph glyph-name="shangpinshoudai" unicode="&#59180;" d="M949.631249-80.721724l-72.462516 760.76408c-1.786466 18.784411-17.53553 33.105399-36.391254 33.105399l-128.925461 0c-9.285237 102.355201-95.498242 182.852245-200.20858 182.852245s-190.923343-80.497044-200.20858-182.852245L182.509397 713.147755c-18.855724 0-34.606616-14.320988-36.391254-33.105399l-73.140898-767.979429c-1.000202-10.248868 2.393536-20.428253 9.321807-28.071477 6.928272-7.606653 16.785836-11.964022 27.071275-11.964022l804.549878 0c0.250508-0.03657 0.535757-0.03657 0.714952 0 20.214316 0 36.570449 16.356133 36.570449 36.570449C951.203778-87.686566 950.668021-84.115461 949.631249-80.721724zM511.643438 822.859102c64.320106 0 117.175376-47.85609 126.138793-109.711347L385.504645 713.147755C394.468062 775.003012 447.323332 822.859102 511.643438 822.859102zM215.759249 640.006857l94.746719 0 0-36.570449c0-20.214316 16.356133-36.570449 36.570449-36.570449s36.570449 16.356133 36.570449 36.570449l0 36.570449 255.993143 0 0-36.570449c0-20.214316 16.356133-36.570449 36.570449-36.570449s36.570449 16.356133 36.570449 36.570449l0 36.570449 94.746719 0 55.747992-585.127184L160.009428 54.879673 215.759249 640.006857zM149.581365-54.829846l6.964842 73.140898 710.194463 0 6.964842-73.140898L149.581365-54.829846z"  horiz-adv-x="1024" />

    
    <glyph glyph-name="icon--" unicode="&#59281;" d="M716.8 665.6h-51.2c0 56.32-69.12 102.4-153.6 102.4s-153.6-46.08-153.6-102.4h-51.2c-56.32 0-102.4-46.08-102.4-102.4v-512c0-56.32 46.08-102.4 102.4-102.4h409.6c56.32 0 102.4 46.08 102.4 102.4V563.2c0 56.32-46.08 102.4-102.4 102.4z m-204.8 51.2c56.32 0 102.4-15.36 102.4-51.2h-204.8c0 35.84 46.08 51.2 102.4 51.2z m256-665.6c0-28.16-23.04-51.2-51.2-51.2H307.2c-28.16 0-51.2 23.04-51.2 51.2v51.2h512v-51.2z m0 102.4H256V563.2c0 28.16 23.04 51.2 51.2 51.2h51.2v-153.6h51.2v153.6h204.8v-153.6h51.2v153.6h51.2c28.16 0 51.2-23.04 51.2-51.2v-409.6z"  horiz-adv-x="1024" />

    
    <glyph glyph-name="tupianshangchuan" unicode="&#59037;" d="M712.5 107.2H194.2c-22.5 0-43 8.8-58.7 23.3l146.9 183.2c7.9 9.8 19 15.5 31.2 15.9 12.2 0.4 23.6-4.6 32-13.9l12.9-14.3c17.1-19 41-28.8 65.8-27.1 24.7 1.7 47.2 14.9 61.8 36L560.2 418c8 11.7 20.5 18.4 34.1 18.5h0.3c13.6 0 26-6.6 34.1-18.1l76.7-108.9c6.8-9.6 19.6-11.5 28.6-4.3 8.9 7.1 10.7 20.4 4 29.9L661.3 444c-15.9 22.5-40.1 35.4-66.7 35.4h-0.5c-26.8-0.2-51.1-13.4-66.8-36.2l-74.1-107.8c-7.4-10.8-18.9-17.5-31.6-18.4-12.6-0.9-24.9 4.2-33.6 13.8l-12.9 14.3c-16.2 18-39.1 28-62.7 27.3-23.6-0.7-45.8-12-61.1-31l-140-174.7c-4 10.7-6.3 22.5-6.3 34.7V567.1c0 52 40 94.2 89.2 94.2H767c49.3 0 89.2-42.2 89.2-94.2v-181.3c0-11.9 9.1-21.5 20.3-21.5s20.3 9.6 20.3 21.5V567.1c0 75.7-58.2 137.1-129.9 137.1H194.2c-71.7 0-129.9-61.4-129.9-137.1v-365.7c0-75.7 58.2-137.1 129.9-137.1h518.3c11.2 0 20.3 9.6 20.3 21.5 0 11.8-9.1 21.4-20.3 21.4zM926.6 223.3h-52.5v54.5c0 19.4-14.9 35.1-33.2 35.1s-33.2-15.7-33.2-35.1v-54.5h-53.6c-18.3 0-33.2-15.7-33.2-35.1 0-19.4 14.9-35.1 33.2-35.1h53.6v-53.9c0-19.4 14.9-35.1 33.2-35.1s33.2 15.7 33.2 35.1v53.9h52.5c18.3 0 33.2 15.7 33.2 35.1 0 19.4-14.9 35.1-33.2 35.1zM256.5 479.9c-35 0-63.6 28.5-63.6 63.6 0 35 28.5 63.6 63.6 63.6s63.6-28.5 63.6-63.6-28.6-63.6-63.6-63.6z m0 89.2c-14.1 0-25.6-11.5-25.6-25.6 0-14.1 11.5-25.6 25.6-25.6 14.1 0 25.6 11.5 25.6 25.6 0 14.1-11.5 25.6-25.6 25.6z"  horiz-adv-x="1024" />

    
    <glyph glyph-name="iconfontzhizuobiaozhunbduan22" unicode="&#59101;" d="M1019.343363 747.970572c9.699919-9.699919 9.700943-25.430182 0.001023-35.130102l-529.10661-529.108656c-9.700943-9.700943-25.433252-9.700943-35.134195 0.002047l0 0c-9.701966 9.700943-9.701966 25.430182 0 35.131125l529.10661 529.105586C993.913181 757.672538 1009.641397 757.672538 1019.343363 747.970572L1019.343363 747.970572zM488.655745 183.73386c-9.701966-9.702989-25.431206-9.702989-35.133172-0.002047l-296.254308 296.252261c-9.700943 9.700943-9.700943 25.432229 0.002047 35.134195l0 0c9.699919 9.699919 25.431206 9.699919 35.132148-0.00307l296.253284-296.250214C498.356688 209.161996 498.355665 193.435827 488.655745 183.73386L488.655745 183.73386zM1015.70858 465.650625c-0.010233 0.063445-0.027629 0.121773-0.036839 0.183172-0.005117 0.029676-0.011256 0.059352-0.01535 0.086981l-0.00307-0.002047c-1.986237 11.534707-12.873192 19.36607-24.464181 17.521049-11.682064-1.858324-19.644409-12.8384-17.785062-24.521486 0.12382-0.773619 0.291642-1.526773 0.493234-2.264577 9.752108-62.107523 7.115048-124.295887-7.850805-184.859241-14.531971-58.794058-40.007179-113.568569-75.720565-162.804946-35.712363-49.237401-79.868025-90.463338-131.244136-122.525568-53.202713-33.211403-111.837134-55.089689-174.274162-65.025992-62.439074-9.939373-124.969223-7.346315-185.852872 7.704472-58.793034 14.527878-113.567545 40.007179-162.801876 75.724659-49.233308 35.713386-90.456175 79.874165-122.521474 131.250276-33.20424 53.204759-55.080479 111.841228-65.018829 174.278255-9.93528 62.432934-7.346315 124.954897 7.701402 185.835476 14.529925 58.790988 40.005133 113.565499 75.719542 162.79369 35.712363 49.232285 79.871095 90.455151 131.247206 122.519428 53.202713 33.205263 111.838158 55.080479 174.276209 65.018829 62.437028 9.93835 124.966153 7.347339 185.848779-7.697309 58.792011-14.530948 113.565499-40.005133 162.79983-75.715449 2.491751-1.810229 4.947685-3.657296 7.390317-5.517667 4.612041-3.983731 10.880815-5.992481 17.372669-4.958942 11.682064 1.858324 19.645432 12.837376 17.786085 24.51944-0.819668 5.158487-3.423983 9.589402-7.078209 12.770861l0.007163 0.002047c-0.058328 0.041956-0.11768 0.088004-0.177032 0.132006-0.6191 0.530073-1.272993 1.016143-1.948375 1.471514-2.737344 2.069125-5.491061 4.122901-8.277524 6.14086-53.723575 38.971593-113.490797 66.768683-177.642886 82.623789-66.434062 16.413831-134.661979 19.24225-202.791659 8.398274-68.12968-10.844999-132.110877-34.717709-190.164061-70.946842-56.060807-34.986839-104.246249-79.966263-143.213749-133.690862-38.968523-53.714366-66.765613-113.480564-82.621742-177.63163-16.418948-66.430992-19.244296-134.655839-8.400321-202.778356 10.842952-68.12968 34.710546-132.110877 70.942749-190.165084 34.990932-56.06183 79.972403-104.249319 133.691885-143.216819 53.721529-38.974663 113.490797-66.774823 177.644933-82.629929 66.435085-16.420995 134.665049-19.249413 202.795752-8.404414 68.130703 10.842952 132.10883 34.714639 190.163037 70.949912 56.060807 34.989909 104.243179 79.971379 143.208633 133.701095 38.97057 53.720505 66.768683 113.490797 82.622766 177.644933 16.418948 66.437132 19.24532 134.666072 8.400321 202.796776-0.061398 0.38374-0.12689 0.76441-0.189312 1.14815C1015.716766 465.556481 1015.716766 465.604576 1015.70858 465.650625z"  horiz-adv-x="1027" />

    
    <glyph glyph-name="icon-1" unicode="&#59111;" d="M1024 384c0-281.6-230.4-512-512-512S0 102.39999999999998 0 384 230.4 896 512 896c112 0 220.8-35.2 310.4-105.6 12.8-9.6 16-32 6.4-44.8-9.6-12.8-32-16-44.8-6.4C704 800 611.2 832 512 832 265.6 832 64 630.4 64 384s201.6-448 448-448 448 201.6 448 448c0 19.2 12.8 32 32 32s32-12.8 32-32zM982.4 620.8L576 214.39999999999998c-19.2-19.2-44.8-28.8-67.2-28.8-25.6 0-48 9.6-67.2 28.8l-182.4 182.4c-12.8 12.8-12.8 32 0 44.8 12.8 12.8 32 12.8 44.8 0l182.4-182.4c12.8-12.8 32-12.8 44.8 0L937.6 665.6c12.8 12.8 32 12.8 44.8 0 12.8-9.6 12.8-32 0-44.8z"  horiz-adv-x="1024" />

    
    <glyph glyph-name="gou" unicode="&#58898;" d="M350.098633 188.28041l-210.483852 210.483852-71.423703-71.423703 281.907555-281.907555 605.710288 605.710288-71.423703 71.423703L350.098633 188.28041z"  horiz-adv-x="1024" />

    
    <glyph glyph-name="kuangzhonggou" unicode="&#59036;" d="M395.106182 267.103432 174.683743 487.525872 64.451232 377.293361 395.012767 46.731825 408.474128 60.193186 408.567543 60.099771 959.503436 611.035664 849.270925 721.268175 395.106182 267.103432Z"  horiz-adv-x="1024" />

    
    <glyph glyph-name="xie" unicode="&#58895;" d="M916.945455-4.654545H111.709091c-18.618182 0-34.909091 16.290909-34.909091 34.90909s16.290909 34.909091 34.909091 34.909091h805.236364c18.618182 0 34.909091-16.290909 34.90909-34.909091s-13.963636-34.909091-34.90909-34.90909zM842.472727 148.945455H393.309091c-18.618182 0-34.909091 16.290909-34.909091 34.90909s16.290909 34.909091 34.909091 34.909091h446.836364c18.618182 0 34.909091-16.290909 34.90909-34.909091s-13.963636-34.909091-32.581818-34.90909zM160.581818 353.745455l104.727273-107.054546-46.545455-46.545454-104.727272 104.727272zM558.545455 754.036364l104.727272-107.054546-48.872727-46.545454-104.727273 104.727272zM128 130.327273c-20.945455 0-41.890909 9.309091-58.181818 25.6-16.290909 16.290909-25.6 41.890909-25.6 65.163636l9.309091 114.036364L537.6 821.527273c23.272727 23.272727 53.527273 34.909091 86.109091 34.909091 37.236364 0 72.145455-16.290909 97.745454-41.890909 27.927273-27.927273 41.890909-65.163636 41.89091-102.4 0-32.581818-13.963636-62.836364-37.236364-83.781819l-479.418182-488.727272-114.036364-9.309091h-4.654545z m-4.654545 174.545454L116.363636 216.436364c0-4.654545 2.327273-9.309091 4.654546-9.309091 2.327273-2.327273 6.981818-4.654545 9.309091-4.654546l88.436363 6.981818L677.236364 679.563636c9.309091 9.309091 13.963636 20.945455 16.290909 34.909091 0 18.618182-6.981818 37.236364-20.945455 51.2-13.963636 13.963636-30.254545 20.945455-48.872727 20.945455-9.309091 0-23.272727-2.327273-34.909091-13.963637l-465.454545-467.781818z"  horiz-adv-x="1024" />

    
    <glyph glyph-name="huoche1" unicode="&#59033;" d="M640 160H0V800h640zM64 224h512V736H64zM1024 160H704v64h256v216.32L876.16 608H768v-192h128v-64h-192V672h211.84L1024 455.68V160zM128 416h384v-64H128zM864-32a128 128 0 0 0-128 128h64a64 64 0 0 1 128 0h64a128 128 0 0 0-128-128zM256-32a128 128 0 0 0-128 128h64a64 64 0 0 1 128 0h64a128 128 0 0 0-128-128z"  horiz-adv-x="1024" />

    
    <glyph glyph-name="huabanfuben" unicode="&#60284;" d="M824.14 339.51a35 35 0 0 1-35-35v-237.89H140.68V642.39h293.84a35 35 0 0 1 0 70H105.68a35 35 0 0 1-35-35v-645.77a35 35 0 0 1 35-35h718.46a35 35 0 0 1 35 35V304.51a35 35 0 0 1-35 35zM965.36 703L847.58 820.76a35 35 0 0 1-49.35 0.14L374.56 402.1a35 35 0 0 1-9.8-18.44L336.32 232a35 35 0 0 1 42.29-40.55l146.22 33.83a35 35 0 0 1 16.72 9.21l423.67 418.84a35 35 0 0 1 0.14 49.65z m-466-411.69L415 271.76 431.55 360l391.14 386.65L891 678.37z"  horiz-adv-x="1024" />

    
    <glyph glyph-name="icon-" unicode="&#59034;" d="M784.402963 190.103704H377.362963c-9.860741 0-18.394074 6.731852-20.764444 16.308148l-86.850371 360.296296c-1.517037 6.352593-0.094815 13.084444 3.982222 18.204445 4.077037 5.12 10.24 8.154074 16.782223 8.154074h584.154074c6.542222 0 12.8-3.034074 16.782222-8.248889s5.499259-11.946667 3.887407-18.299259l-90.263703-360.296297c-2.37037-9.481481-10.903704-16.118519-20.66963-16.118518z m-390.257778 42.666666h373.570371l79.549629 317.62963H317.62963l76.515555-317.62963zM783.17037 94.814815H400.687407c-9.860741 0-18.394074 6.731852-20.764444 16.308148L230.115556 725.333333h-80.782223c-11.757037 0-21.333333 9.576296-21.333333 21.333334s9.576296 21.333333 21.333333 21.333333h97.46963c9.860741 0 18.394074-6.731852 20.764444-16.308148L417.46963 137.481481H783.17037c11.757037 0 21.333333-9.576296 21.333334-21.333333S794.927407 94.814815 783.17037 94.814815zM399.075556 0c-37.925926 0-68.740741 30.814815-68.740741 68.740741s30.814815 68.740741 68.740741 68.74074 68.740741-30.814815 68.74074-68.74074-30.90963-68.740741-68.74074-68.740741z m0 94.814815c-14.411852 0-26.074074-11.662222-26.074075-26.074074s11.662222-26.074074 26.074075-26.074074 26.074074 11.662222 26.074074 26.074074S413.392593 94.814815 399.075556 94.814815zM781.937778 0c-37.925926 0-68.740741 30.814815-68.740741 68.740741s30.814815 68.740741 68.740741 68.74074 68.740741-30.814815 68.740741-68.74074-30.814815-68.740741-68.740741-68.740741z m0 94.814815c-14.411852 0-26.074074-11.662222-26.074074-26.074074s11.662222-26.074074 26.074074-26.074074 26.074074 11.662222 26.074074 26.074074-11.662222 26.074074-26.074074 26.074074z"  horiz-adv-x="1024" />

    
    <glyph glyph-name="shangpu" unicode="&#59035;" d="M824.258222 341.705521c-63.896337 0-121.408036 38.337802-155.479421 89.454872-36.20959-51.11707-93.711297-89.454872-157.607635-89.454872-63.906329 0-121.408036 38.337802-155.489413 89.454872-36.20959-51.11707-91.583085-89.454872-157.607634-89.454872C89.455342 341.705521 0.00047 431.160393 0.00047 539.789161v8.512851L151.213475 895.470445h719.905392L1022.341863 550.430225v-8.522843c0-110.74699-89.454872-200.201862-198.083641-200.201861zM630.341082 557.913939h89.894503c0-65.175263 53.934703-141.581094 119.109966-141.581094 62.927151 0 114.613742 49.438479 119.109966 110.117519L832.591224 820.84312H189.861017L61.758603 526.450364c4.496224-60.679039 56.182815-110.117518 119.109966-110.117519 67.423375 0 119.109966 78.653943 119.109966 141.581094h89.894503c0-65.175263 53.934703-141.581094 119.109966-141.581094 69.661495 0 121.358078 78.653943 121.358078 141.581094z m179.00966-682.656675H212.981599c-83.070234 0-149.094784 63.896337-149.094784 142.700155V301.239506h65.21523v-283.272096c0-31.943173 47.669965-71.48996 83.879554-71.489959h596.369143c34.071385 0 83.879554 39.546787 83.879554 71.489959V301.239506h65.21523v-283.272096c0-78.813809-66.02455-142.710146-149.094784-142.710146z m0 0"  horiz-adv-x="1024" />

    
    <glyph glyph-name="huoche2" unicode="&#58921;" d="M93.4625024 193.29915200000005h271.99472v-55.927632H93.4625024zM690.396768 135.50726507000002l-0.37285014 55.92763307 210.84717547 1.30497813V852.68594134L93.648928 851.19453867 93.4625024 907.12217067l863.33622293 1.67782933v-771.8013312zM94.76748053 736.72931627h406.40746347v-48.65704h-406.40746347zM94.39462933 577.8948394700001h406.40746453v-48.65704h-406.40746453zM94.76748053 427.8223584h406.40746347v-48.65704h-406.40746347zM1116.19247893 477.9708032V718.08677227H910.0059392V773.45512854h358.86897706l152.49601174-285.97662827-305.17844907-9.50769707z m55.36835627 240.11596907v-183.06978453l159.0209024 5.03348693-94.8905504 178.0362976h-64.130352zM940.05026346 136.86444267000002l0.38403734 55.927632 197.05169173-1.35717653-0.38403627-55.92763307zM1435.912112 136.99866880000002l-0.55927574 52.9448256 91.53489174 1.11855254V456.53187734c0 16.21901333-10.9991008 30.014496-24.04888214 30.014496H1286.77175893v52.9448256H1502.83884586c42.50500053 0 76.99370773-37.285088 76.99370774-82.9593216v-317.8553792l-143.9204416-1.67782934zM541.44284053-66.20506346000002c-104.77109867 0-189.96752533 85.19642667-189.9675264 189.96752533s85.19642667 189.96752533 189.9675264 189.9675264S731.41036586 228.53356054000005 731.41036586 123.76246187000004s-85.19642667-189.96752533-189.96752533-189.96752533z m0 324.00741866c-73.82447467 0-134.03989333-60.2154176-134.03989333-134.03989333 0-73.82447467 60.2154176-134.03989333 134.03989333-134.03989227 73.82447467 0 134.03989333 60.2154176 134.03989227 134.03989227 0 74.01090027-60.028992 134.03989333-134.03989227 134.03989333zM1283.22967466-60.23944959999994c-104.77109867 0-189.96752533 85.19642667-189.96752533 189.9675264S1178.45857706 319.69560214 1283.22967466 319.69560214 1473.19720106 234.49917546999995 1473.19720106 129.72807680000005s-85.19642667-189.96752533-189.9675264-189.9675264z m0 324.00741867c-73.82447467 0-134.03989333-60.2154176-134.03989226-134.03989227 0-73.82447467 60.2154176-134.03989333 134.03989226-134.03989333s134.03989333 60.2154176 134.03989334 134.03989333c0 73.82447467-60.028992 134.03989333-134.03989334 134.03989227z"  horiz-adv-x="1677" />

    
    <glyph glyph-name="tianxie" unicode="&#59088;" d="M435.2 163.2c-6.4 0-12.8 1.6-16 6.4L225.6 358.4c-9.6 9.6-9.6 24 0 33.6L630.4 809.6c9.6 9.6 24 9.6 33.6 0l193.6-188.8c4.8-4.8 6.4-9.6 6.4-16s-1.6-12.8-6.4-16L451.2 169.6c-3.2-3.2-9.6-6.4-16-6.4z m-160 212.8l160-155.2 372.8 384-160 155.2-372.8-384zM203.2 97.6c-11.2 0-22.4 4.8-30.4 12.8-11.2 11.2-16 28.8-11.2 44.8l57.6 225.6c3.2 12.8 16 20.8 28.8 17.6 12.8-3.2 20.8-16 17.6-28.8l-57.6-224 222.4 64c12.8 3.2 25.6-3.2 28.8-16 3.2-12.8-3.2-25.6-16-28.8l-224-64c-6.4-3.2-11.2-3.2-16-3.2z m3.2 43.2zM849.6-48H174.4c-12.8 0-24 11.2-24 24s11.2 24 24 24h675.2c12.8 0 24-11.2 24-24s-11.2-24-24-24zM849.6 59.2H472c-12.8 0-24 11.2-24 24s11.2 24 24 24h377.6c12.8 0 24-11.2 24-24 0-14.4-11.2-24-24-24z"  horiz-adv-x="1024" />

    
    <glyph glyph-name="49" unicode="&#59024;" d="M505.859 746.957C259.034 743.567 61.653 540.699 65.043 293.859c3.39-246.825 206.258-444.207 453.098-440.816 246.825 3.391 444.207 206.258 440.816 453.098C955.566 552.966 752.699 750.347 505.859 746.957zM517.733-117.157C287.699-120.314 98 64.248 94.843 294.268 91.686 524.301 276.248 714 506.267 717.157c230.034 3.157 419.732-181.405 422.891-411.424C932.314 75.699 747.752-113.999 517.733-117.157zM619.167 512.398c-25.683 22.525-61.987 33.947-107.895 33.947-43.26 0-78.545-13.78-104.868-40.975-24.445-25.304-37.73-58.582-39.52-98.96l24.212 0c1.746 32.783 12.31 60.706 31.386 83.042 21.346 24.998 50.738 37.672 87.349 37.672 36.552 0 66.104-9.676 87.828-28.767 22.089-19.44 33.278-43.972 33.278-72.885 0-24.169-12.194-50.157-36.392-77.396-21.492-21.434-42.925-42.605-64.213-63.34-12.79-13.213-22.146-27.879-27.821-43.638-5.282-14.507-8.206-38.924-8.657-72.536l22.073 0c0.189 17.781 0.917 31.838 2.139 41.79 1.63 13.066 6.461 26.046 14.362 38.632 5.689 8.775 32.055 36.363 80.626 84.352 29.334 28.811 44.22 58.64 44.22 88.658C657.275 459.753 644.456 490.165 619.167 512.398zM503.168 109.501c-16.428 0-29.801-13.372-29.801-29.8 0-16.442 13.373-29.814 29.801-29.814s29.8 13.372 29.8 29.814C532.968 96.129 519.596 109.501 503.168 109.501z"  horiz-adv-x="1024" />

    
    <glyph glyph-name="wenhao" unicode="&#59025;" d="M512.128 218.624c-19.296 0-38.496-7.936-52.16-21.568s-21.6-32.8-21.6-52.064 7.936-38.464 21.6-52.064c13.632-13.632 32.832-21.568 52.16-21.568s38.496 7.936 52.16 21.568c13.632 13.632 21.6 32.8 21.6 52.064s-7.936 38.464-21.6 52.064c-13.632 13.632-32.832 21.568-52.16 21.568zM511.36 682.688c-49.728 0-89.92-15.232-120.544-45.632-30.624-30.464-48.48-72.416-49.472-111.072s80.64-30.624 83.648-11.552c3.2 20.224 16.576 52.896 32.16 67.68s35.008 22.208 58.176 22.208c24.064 0 43.2-7.104 57.376-21.312s21.312-31.296 21.312-51.2c0-14.368-4.032-27.52-12-39.456-5.184-7.552-21.12-23.488-47.68-47.84s-44.352-46.272-53.184-65.728-13.312-44.288-13.312-74.496c0-2.88 0.096-11.072 0.32-24.448l82.784 0c-0.448 28.224 1.696 47.84 6.336 58.784 4.64 10.976 16.576 25.472 35.776 43.456 37.12 34.784 61.376 62.336 72.736 82.496 11.328 20.192 16.96 41.664 16.96 64.288 0 40.896-15.424 76.768-46.4 107.584s-72.576 46.24-124.928 46.24zM512 896c-282.208 0-512-229.664-512-512.032s229.728-511.968 512-511.968c282.304 0 512 229.6 512 511.968s-229.632 512.032-512 512.032zM511.68-62.912c-246.848 0-447.584 200.768-447.584 447.456 0 246.848 200.768 447.552 447.584 447.552s447.648-200.672 447.648-447.552c0.032-246.72-200.8-447.456-447.648-447.456z"  horiz-adv-x="1024" />

    
    <glyph glyph-name="wenhao1" unicode="&#59026;" d="M502.757-64.219c-60.5 0-119.201 11.854-174.474 35.231-53.377 22.576-101.31 54.894-142.466 96.05-41.156 41.153-73.472 89.088-96.049 142.465C66.39 264.799 54.537 323.5 54.537 384S66.39 503.201 89.768 558.474c22.576 53.376 54.893 101.309 96.049 142.465 41.156 41.157 89.089 73.473 142.466 96.049 55.271 23.378 113.973 35.231 174.474 35.231 60.499 0 119.2-11.853 174.474-35.231 53.377-22.577 101.31-54.893 142.466-96.05 41.157-41.155 73.472-89.088 96.048-142.465 23.379-55.27 35.231-113.972 35.231-174.474s-11.854-119.204-35.232-174.473c-22.577-53.38-54.892-101.312-96.047-142.466-41.156-41.155-89.09-73.473-142.465-96.049C621.956-52.365 563.256-64.219 502.757-64.219zM502.757 801.52c-56.369 0-111.047-11.038-162.515-32.806-49.717-21.029-94.369-51.136-132.716-89.482-38.348-38.348-68.453-83-89.482-132.717C96.275 495.048 85.237 440.37 85.237 384c0-56.368 11.038-111.047 32.807-162.512 21.03-49.722 51.135-94.373 89.482-132.717 38.347-38.351 82.999-68.455 132.716-89.482 51.469-21.77 106.146-32.809 162.515-32.809s111.046 11.036 162.516 32.809c49.717 21.029 94.368 51.135 132.715 89.482 38.348 38.344 68.453 82.996 89.48 132.715 21.771 51.465 32.809 106.145 32.809 162.514 0 56.371-11.037 111.049-32.809 162.515-21.028 49.718-51.135 94.371-89.48 132.718-38.348 38.347-82.999 68.453-132.717 89.482C613.804 790.482 559.125 801.52 502.757 801.52zM446.479 176.706l0-74.638 89.476 0 0 74.638L446.479 176.706zM677.814 434.852c13.094 19.66 19.645 41.14 19.645 64.442 0 40.29-18.628 74.642-55.87 103.039-37.253 28.397-87.159 42.599-149.72 42.599-59.074 0-106.578-13.231-142.51-39.685-35.942-26.461-57.545-64.57-64.816-114.325l80.75-8.01c6.979 37.134 21.674 64.443 44.081 81.917 22.407 17.479 50.34 26.216 83.806 26.216 34.628 0 63.873-9.647 87.736-28.943 23.858-19.299 35.795-41.69 35.795-67.178 0-14.08-4.082-27.068-12.226-38.956-8.149-11.897-25.823-27.854-53.032-47.879-27.21-20.024-46.045-35.258-56.526-45.695-14.259-14.323-24.589-28.523-30.986-42.596-8.733-18.695-13.093-40.905-13.093-66.63 0-4.371 0.14-10.923 0.436-19.663l75.509 0c0.578 26.216 2.761 45.153 6.55 56.798 3.775 11.651 9.602 21.969 17.456 30.951 7.859 8.975 24.59 22.938 50.198 41.868C639.109 391.278 664.72 415.186 677.814 434.852L677.814 434.852z"  horiz-adv-x="1024" />

    
    <glyph glyph-name="lock" unicode="&#58901;" d="M916.211-128h-808.421c-29.777 0-53.895 24.145-53.895 53.895v485.053c0 29.777 24.118 53.895 53.895 53.895h80.842v107.789c0 178.607 144.788 323.368 323.368 323.368s323.368-144.761 323.368-323.368v-107.789h80.842c29.777 0 53.895-24.118 53.895-53.895v-485.053c0-29.75-24.118-53.895-53.895-53.895zM781.474 572.632c0 148.83-120.643 269.474-269.474 269.474-148.83 0-269.474-120.643-269.474-269.474v-107.789h538.947v107.789zM916.211 410.947h-808.421v-485.053h808.421v485.053zM512 303.158c14.875 0 26.947-12.072 26.947-26.947v-215.579c0-14.875-12.072-26.947-26.947-26.947s-26.947 12.072-26.947 26.947v215.579c0 14.875 12.072 26.947 26.947 26.947z"  horiz-adv-x="1024" />

    
    <glyph glyph-name="gouwuche" unicode="&#59027;" d="M846.36 170.74H354.987c-13.794 0-26.936 12.446-28.706 27.184l-51.509 362.723-29.127 168.118c-5.295 43.37-43.4 77.285-86.786 77.285h-38.54c-15.87 0-28.78-12.91-28.78-28.778s12.91-28.779 28.78-28.779h38.54c14.303 0 27.967-12.851 29.852-28.053l29.185-168.727 51.305-361.272c5.25-43.314 42.922-77.227 85.785-77.227h491.371c15.87 0 28.779 12.91 28.779 28.778 0.002 15.84-12.908 28.749-28.778 28.749zM914.564 688.73c-15.144 17.146-36.002 26.575-58.69 26.575h-523.79c-15.87 0-28.778-12.91-28.778-28.779s12.91-28.778 28.778-28.778h523.79c6.18 0 11.431-2.408 15.608-7.137 6.209-7.02 9.37-18.538 8.065-29.358l-47.665-272.731c-1.769-14.534-15.637-26.516-30.896-26.603L390.7 291.661c-7.658-0.552-14.62-4.033-19.64-9.864-5.034-5.802-7.484-13.229-6.92-20.887 1.088-14.97 13.679-26.69 28.663-26.69 0.682 0 1.407 0.028 2.118 0.087l408.154 30.17c42.936 0 80.535 33.218 85.698 75.603l47.694 272.73c3.452 28.604-4.526 56.309-21.903 75.92zM362.821-38.05c32.536 0 59.023 26.488 59.023 59.009 0 32.55-26.488 59.037-59.023 59.037S303.8 53.51 303.8 20.96c0-32.522 26.486-59.008 59.022-59.008zM786.365-38.05c32.521 0 59.008 26.488 59.008 59.009 0 32.55-26.488 59.037-59.008 59.037-32.55 0-59.037-26.487-59.037-59.037 0-32.522 26.486-59.008 59.037-59.008z"  horiz-adv-x="1024" />

    
    <glyph glyph-name="tuichu" unicode="&#58886;" d="M258.011 358.026h551.962l-122.679-120.747c-4.233-4.14-6.858-9.908-6.858-16.291s2.625-12.151 6.854-16.286c9.126-8.993 23.947-8.993 33.090-0.006l161.468 158.916c4.88 4.809 6.955 11.157 6.637 17.442 0.319 6.284-1.754 12.655-6.637 17.442l-161.468 158.92c-9.143 8.988-23.964 8.988-33.085 0-4.233-4.14-6.858-9.908-6.858-16.291 0-6.382 2.625-12.151 6.854-16.286l122.683-120.751h-551.962c-12.929 0-23.396-10.308-23.396-23.033s10.468-23.030 23.396-23.030zM748.314 632.573c0 25.292-20.908 45.796-46.702 45.796h-467.002c-25.789 0-46.702-20.505-46.702-45.796v-503.742c0-25.288 20.908-45.796 46.702-45.796h466.997c25.788 0 46.701 20.505 46.701 45.796v91.589h46.702v-91.589c0-50.579-41.821-91.589-93.401-91.589h-466.997c-51.58 0-93.401 41.009-93.401 91.589v503.742c0 50.579 41.821 91.589 93.401 91.589h466.997c51.58 0 93.401-41.009 93.401-91.589v-91.589h-46.702l0.005 91.589z"  horiz-adv-x="1031" />

    
    <glyph glyph-name="lianxikefu" unicode="&#58916;" d="M266.778947-28.294737c-5.389474 0-8.084211 2.694737-10.778947 5.389474-5.389474 5.389474-2.694737 13.473684 2.694737 18.863158 13.473684 8.084211 129.347368 83.536842 150.905263 72.757894 51.2-24.252632 105.094737-35.031579 161.684211-35.031578C776.084211 33.684211 943.157895 192.673684 943.157895 389.389474S778.778947 747.789474 571.284211 747.789474 199.410526 588.8 199.410526 392.084211c0-80.842105 29.642105-161.684211 83.536842-226.357895 5.389474-5.389474 5.389474-13.473684-2.694736-18.863158-5.389474-5.389474-13.473684-5.389474-18.863158 2.694737-59.284211 67.368421-91.621053 153.6-91.621053 242.526316 0 210.189474 180.547368 382.652632 398.821053 382.652631 220.968421 0 398.821053-172.463158 398.821052-382.652631 0-210.189474-180.547368-382.652632-398.821052-382.652632-59.284211 0-115.873684 10.778947-169.768421 35.031579-18.863158-5.389474-102.4-53.894737-126.652632-70.063158 0 0-2.694737-2.694737-5.389474-2.694737zM749.136842 445.978947H377.263158c-8.084211 0-13.473684 5.389474-13.473684 13.473685s5.389474 13.473684 13.473684 13.473684h371.873684c8.084211 0 13.473684-5.389474 13.473684-13.473684s-5.389474-13.473684-13.473684-13.473685zM611.705263 286.989474H377.263158c-8.084211 0-13.473684 5.389474-13.473684 13.473684s5.389474 13.473684 13.473684 13.473684h234.442105c8.084211 0 13.473684-5.389474 13.473684-13.473684s-8.084211-13.473684-13.473684-13.473684z"  horiz-adv-x="1131" />

    
    <glyph glyph-name="xingxing" unicode="&#58892;" d="M1080.270639 442.266282c-77.161903-88.184889-214.58473-234.425705-214.58473-234.425705s22.045972-160.203798 35.273956-269.70066c5.878993-55.85193-37.478953-80.101899-85.980892-58.054927-92.594883 43.357945-233.690706 110.96686-265.290665 126.399841-32.334959-14.697981-174.165781-81.571897-267.495663-124.928843-49.236938-21.310973-92.594883 2.204997-87.45089 58.054927 12.492984 109.496862 35.273956 268.965661 35.273955 268.965661S91.123885 354.082393 13.227983 442.267282c-27.924965 32.334959-9.551988 77.896902 44.827944 85.980891 111.701859 19.841975 284.397642 51.441935 284.397642 51.441935s94.798881 163.143794 154.324805 263.086669C529.848333 903.7717 552.629304 896.422709 556.304299 894.952711c10.287987-2.939996 26.455967-15.431981 47.032941-52.175934 58.789926-99.943874 152.119808-263.087669 152.119808-263.087669s170.491785-31.60096 280.723647-51.441935c53.645932-8.08399 71.28291-54.380931 44.092944-85.980891z"  horiz-adv-x="1092" />

    
    <glyph glyph-name="shalou" unicode="&#58926;" d="M834.4 804H189.6c-13.6 0-24 11.2-24 24 0 13.6 11.2 24 24 24h644.8c13.6 0 24-11.2 24-24 0.8-12.8-10.4-24-24-24zM866.4-96.8H158.4c-14.4 0-26.4 12-26.4 26.4 0 14.4 12 26.4 26.4 26.4h708c14.4 0 26.4-12 26.4-26.4 0-14.4-12-26.4-26.4-26.4zM766.4 229.6l-0.8 1.6c-40.8 71.2-95.2 117.6-152.8 145.6 57.6 28.8 111.2 74.4 152.8 145.6l0.8 1.6c40.8 70.4 68 166.4 72.8 294.4H792c-4-118.4-28.8-206.4-66.4-271.2l-0.8-0.8C678.4 464 626.4 420 559.2 399.2l-3.2-0.8h-0.8c-1.6-0.8-2.4-1.6-4-2.4l-0.8-0.8-1.6-1.6-1.6-1.6v-0.8c-0.8-0.8-1.6-2.4-2.4-4l-0.8-0.8-1.6-5.6v-8.8l1.6-5.6 0.8-0.8c0.8-1.6 1.6-2.4 2.4-4v-0.8l1.6-1.6V360l1.6-0.8 0.8-0.8c0.8-0.8 2.4-1.6 4-2.4h0.8l3.2-1.6c68-21.6 119.2-64.8 166.4-146.4l0.8-1.6c20-33.6 35.2-74.4 47.2-121.6 2.4-13.6 11.2-43.2 12.8-81.6-37.6 33.6-141.6 57.6-266.4 59.2V432c1.6 0 2.4 0.8 4 1.6v0.8l6.4 2.4h1.6c45.6 14.4 81.6 36.8 112 66.4 32 32 56.8 71.2 73.6 115.2 4.8 12-0.8 25.6-13.6 30.4-12 4.8-25.6-0.8-30.4-12.8v-0.8c-14.4-36.8-35.2-71.2-62.4-98.4-24.8-24-54.4-43.2-92-54.4l-0.8-0.8-2.4-0.8-4-0.8-2.4 0.8-1.6 0.8-2.4 0.8c-36.8 12-68 30.4-92 54.4-28 27.2-48 60.8-62.4 98.4-4.8 12-18.4 18.4-29.6 13.6-12-4.8-17.6-17.6-13.6-30.4 16.8-44 40.8-83.2 73.6-115.2 29.6-29.6 66.4-52 111.2-66.4h0.8l6.4-2.4 1.6-0.8c0.8-0.8 1.6-0.8 3.2-1.6v-369.6c-116.8 0-218.4-20-266.4-48 1.6 19.2 5.6 40 12.8 70.4 12 48 28 88 47.2 121.6l0.8 1.6c47.2 81.6 98.4 124.8 167.2 146.4l2.4 1.6h0.8c1.6 0.8 2.4 1.6 4 2.4l0.8 0.8 1.6 0.8v0.8l1.6 1.6v0.8c0.8 0.8 1.6 2.4 2.4 4V368c0.8 1.6 1.6 4 1.6 5.6v8c0 1.6-0.8 4-1.6 5.6v0.8c-0.8 1.6-1.6 3.2-2.4 4v0.8l-1.6 1.6-1.6 1.6-2.4-0.8c-1.6 0.8-2.4 1.6-4 2.4h-0.8l-2.4 0.8c-68 20.8-120 64.8-167.2 147.2l-0.8 0.8c-36.8 64.8-61.6 152.8-66.4 271.2h-47.2c4.8-128 32-223.2 72.8-294.4l0.8-1.6C297.6 450.4 352 404.8 409.6 376c-57.6-28-111.2-74.4-152.8-145.6l-0.8-1.6c-38.4-67.2-65.6-156.8-71.2-276h652.8c-5.6 120-32 209.6-71.2 276.8z"  horiz-adv-x="1024" />

    
    <glyph glyph-name="tianjia" unicode="&#58909;" d="M512-65.3C263.9-65.3 62.7 135.9 62.7 384S263.9 833.3 512 833.3 961.3 632.1 961.3 384 760.2-65.3 512-65.3z m307.4 472.9H535.7V691.4h-46.9v-283.8H204.6v-47.1h284.2v-283.8h46.9V360.4h283.7v47.2z"  horiz-adv-x="1024" />

    
    <glyph glyph-name="share_icon" unicode="&#59028;" d="M845.33 217.33c-50.672-0.014-96.044-22.694-126.53-58.453-0.65 0.013-0.94 0.433-1.43 0.643l-383.44 164.34c7.215 17.783 11.401 38.411 11.401 60.017 0 12.925-1.498 25.5-4.33 37.561l377.809 187.692c30.675-35.863 75.969-58.452 126.54-58.46 91.89 0 166.65 74.76 166.65 166.67s-74.76 166.66-166.67 166.66-166.66-74.76-166.66-166.67c0.030-21.811 4.272-42.622 11.957-61.676l-370.627-183.794c-29.46 47.22-81.72 78.81-141.37 78.81-91.87 0-166.63-74.76-166.63-166.67s74.76-166.67 166.67-166.67c50.67 0.017 96.039 22.698 126.522 58.456 0.648-0.016 0.938-0.436 1.428-0.646l383.45-164.33c-7.208-17.877-11.393-38.606-11.4-60.312 0-91.738 74.76-166.498 166.67-166.498s166.66 74.76 166.66 166.67-74.76 166.66-166.67 166.66zM845.33 828.44c61.364 0 111.11-49.746 111.11-111.11s-49.746-111.11-111.11-111.11c-61.364 0-111.11 49.746-111.11 111.11 0.063 61.339 49.771 111.047 111.104 111.11zM178.67 272.89c-61.364 0-111.11 49.746-111.11 111.11s49.746 111.11 111.11 111.11c61.364 0 111.11-49.746 111.11-111.11-0.063-61.339-49.771-111.047-111.104-111.11zM845.33-60.44c-61.364 0-111.11 49.746-111.11 111.11s49.746 111.11 111.11 111.11c61.364 0 111.11-49.746 111.11-111.11-0.063-61.339-49.771-111.047-111.104-111.11z"  horiz-adv-x="1024" />

    
    <glyph glyph-name="credentials_icon" unicode="&#59029;" d="M1053.926 754.789h-798.626c-62.983-0.064-114.023-51.105-114.087-114.082v-513.408c0.064-62.983 51.105-114.023 114.083-114.087h798.632c62.983 0.064 114.024 51.105 114.087 114.082v513.408c-0.064 62.983-51.105 114.023-114.082 114.087zM1110.965 127.298c-0.041-31.491-25.558-57.008-57.045-57.050h-798.62c-31.487 0.047-56.998 25.562-57.038 57.045v513.405c0.040 31.491 25.558 57.008 57.045 57.049h798.62c31.487-0.047 56.998-25.562 57.039-57.045zM946.142 361.41c30.804 26.183 50.735 64.688 50.735 108.152 0 78.633-63.979 142.613-142.613 142.613s-142.601-63.98-142.601-142.613c0-43.464 19.961-81.969 50.766-108.152-63.939-33.32-107.813-100.123-107.813-177.071 0-15.753 12.772-28.524 28.524-28.524 15.753 0 28.524 12.772 28.524 28.524 0 78.633 63.98 142.612 142.612 142.612s142.613-63.979 142.613-142.612c0 0 0 0 0 0 0-15.753 12.772-28.524 28.524-28.524 15.753 0 28.524 12.772 28.524 28.524 0 0 0 0 0 0-0.009 76.948-43.854 143.752-107.795 177.071zM768.702 469.563c0 47.257 38.308 85.563 85.564 85.563s85.563-38.308 85.563-85.563c0-47.257-38.308-85.563-85.563-85.563-47.234 0.052-85.51 38.33-85.563 85.559zM626.087 555.137h-342.264c-15.753 0-28.524-12.772-28.524-28.524s12.772-28.524 28.524-28.524h342.264c15.753 0 28.524 12.772 28.524 28.524s-12.772 28.524-28.524 28.524zM597.563 412.524h-313.74c-15.753 0-28.524-12.772-28.524-28.524s12.772-28.524 28.524-28.524h313.74c15.753 0 28.524 12.772 28.524 28.524s-12.772 28.524-28.524 28.524zM512 269.913h-228.176c-15.753 0-28.524-12.772-28.524-28.524s12.772-28.524 28.524-28.524h228.176c15.753 0 28.524 12.772 28.524 28.524s-12.772 28.524-28.524 28.524z"  horiz-adv-x="1417" />

    
    <glyph glyph-name="baocun" unicode="&#59097;" d="M256 768H160a32 32 0 0 1-32-32v-704a32 32 0 0 1 32-32h704a32 32 0 0 1 32 32V736a32 32 0 0 1-32 32h-96v-320a64 64 0 0 0-64-64H320a64 64 0 0 0-64 64V768zM128 832h768a64 64 0 0 0 64-64v-768a64 64 0 0 0-64-64H128a64 64 0 0 0-64 64V768a64 64 0 0 0 64 64z m192-64v-288a32 32 0 0 1 32-32h320a32 32 0 0 1 32 32V768H320z m288-64a32 32 0 0 0 32-32v-128a32 32 0 0 0-64 0V672a32 32 0 0 0 32 32z"  horiz-adv-x="1024" />

    
    <glyph glyph-name="shenfenzhengzhengmian" unicode="&#59030;" d="M109.40818697722278 556.539348966716h377.69284144340503v-36.47173317395414H109.40818697722278v36.47173317395414zM109.40818697722278 383.6493108151159h377.69284144340503v-36.47173317395414H109.40818697722278v36.47173317395414zM109.40818697722278 211.10996184839973H925.8138841995815v-36.47173194106056H109.40818697722278v36.47173194106056zM910.0328462219211 297.3796357153109c0-8.41655399904997-7.364483978610229-15.43034879277601-16.482416347428572-15.43034755988242h-296.3328247951275c-9.117933601711933 0-16.48241758032216 7.013794793726042-16.48241758032216 15.43034755988242 0 0 0 55.75966793203057 44.186906337448555 75.74898229276897 28.05517917490417 12.975519567012345 10.17000238925808 2.4548279928700762 44.53759675522634 15.43034879277601 34.36759436596825 12.975519567012345 35.4196631535144 17.534486367868315 35.41966192062082 17.534486367868315l0.35069041777777776 30.15931674999647s-12.975519567012345 9.117933601711933-16.83310676520635 37.52380196150029c-8.065863581272191-2.1041388079858905-10.520691574142269 8.767243183934157-11.222072409697825 15.43034755988242-0.3506891848841857 6.663104375948265-4.558966800855966 27.35379957224221 5.26034640351793 25.600351182034093-2.1041388079858905 14.027589587452084-3.5068967804162257 26.301729551802467-2.8055184106478537 32.96483516064432 2.4548279928700762 23.145521956270432 27.003109154464426 47.69380311786478 64.52691111596472 49.447251508072895 44.186906337448555-1.7534483902081128 61.721392705316866-25.95104036691828 64.17622193108053-49.447251508072895 0.7013796026619634-6.663104375948265-0.7013796026619634-19.28793475807642-2.8055184106478537-32.96483516064432 9.819311971480305 1.7534483902081128 5.611035588402117-18.937245573192243 4.9096559857401525-25.600351182034093-0.3506891848841857-7.013794793726042-3.1562075955320394-17.534486367868315-11.222071176804233-15.43034755988242-3.8575871981940026-28.405868359788357-16.83310676520635-37.17311154372251-16.83310676520635-37.17311154372251l0.3506891848841857-30.159317982890062s4.558966800855966-4.208276383078189 38.926559933930626-17.18379595009053c34.36759436596825-12.975519567012345 16.48241758032216-3.1562075955320394 44.53759675522634-16.131728395437978 43.836217152564366-19.989314360738383 43.836217152564366-75.74898229276897 43.83621591967077-75.74898229276897z m0 0M959.1294097780035 16.47715971295952h-894.258819556007c-33.666214763306286 0-60.66932391777072 27.35379957224221-60.66932391777072 60.66932391777072V653.6804048255474c0 33.666214763306286 27.35379957224221 60.66932391777072 60.66932391777072 60.66932391777072h894.258819556007c33.666214763306286 0 60.66932391777072-27.35379957224221 60.66932391777072-60.66932391777072v-576.1832307770394c0-33.666214763306286-27.003109154464426-61.0200131026549-60.66932391777072-61.02001433554849zM64.87059022199657 692.2562755745937c-21.392073566062315 0-38.57587074904644-17.183797182984126-38.57587074904644-38.57587074904644v-576.1832307770394c0-21.392073566062315 17.183797182984126-38.57587074904644 38.57587074904644-38.57587074904644h894.258819556007c21.392073566062315 0 38.57587074904644 17.183797182984126 38.57587074904644 38.57587074904644V653.6804048255474c0 21.392073566062315-17.183797182984126 38.57587074904644-38.57587074904644 38.57587074904644h-894.258819556007z"  horiz-adv-x="1024" />

    
    <glyph glyph-name="shenfenzhengbeimian" unicode="&#58881;" d="M1396.273951-128v19.555902h82.663025v82.806635H1498.536585V-128h-102.262634zM1478.936976 876.40039h0.143609v0.024976h-82.806634V896H1498.536585v-102.237659h-19.599609V876.40039z m-73.197269-62.183024a55.464585 55.464585 0 0 0 16.309073-39.386537l0.14361-768.780488a55.895415 55.895415 0 0 0-55.839219-55.770536H122.692683a55.882927 55.882927 0 0 0-55.814244 55.795512V774.712195a55.864195 55.864195 0 0 0 55.814244 55.814244h1243.660488c14.660683 0 29.059122-5.931707 39.386536-16.309073z m-39.386536-7.530146H122.692683a32.018732 32.018732 0 0 1-31.968781-31.975025v-768.661854a32.012488 32.012488 0 0 1 31.968781-31.950048h1243.660488a32.006244 32.006244 0 0 1 31.850146 29.302634V774.830829a32.074927 32.074927 0 0 1-9.322146 22.534244 31.981268 31.981268 0 0 1-22.528 9.322147zM465.77639 217.987122h737.036488v-49.26439H465.77639v49.26439z m143.553561 254.232976h593.457951v-49.258147H609.329951v49.258147z m0 122.836292h593.457951v-49.401756H609.329951v49.401756z m0 124.003903h593.457951v-49.395513H609.329951v49.395513zM485.613268 472.220098H580.932683v-49.258147H485.613268v49.258147z m0 122.836292H580.932683v-49.258146H485.613268v49.258146z m0 122.717659H580.932683v-49.258147H485.613268v49.258147zM384.181073 486.643512l20.636098-38.150244a31.363122 31.363122 0 0 1-31.244488 3.521561 58.730146 58.730146 0 0 1-22.996293-30.520195l-16.502634 25.237854v-12.91239H226.185366v12.91239l-14.73561-25.237854a58.748878 58.748878 0 0 1-22.990049 30.520195c-15.32878 8.216976-31.837659-6.456195-31.837658-6.456195l21.809951 41.671805c-49.083317 54.877659-45.842732 138.570927 7.342829 189.521171 53.179317 50.950244 137.297171 50.950244 190.476488 0 53.185561-50.950244 56.426146-134.643512 7.342829-189.521171l0.586927-0.586927zM216.163902 613.438439l-3.534048 9.977756-5.307317-8.803902h-8.254439l7.661268-6.456195v-9.977757l8.254439 5.282342 8.254439-5.282342-4.714146 8.803903 7.661268 6.456195H216.163902z m-2.360195-117.98478h140.899903l-14.148683 22.303219H227.958634l-14.154927-22.303219z m93.739708 22.890146l-4.714147 14.679415h-39.498927l-5.307317-14.679415h49.520391zM238.567024 587.607415l7.661269-6.456195v-9.977757l8.254439 5.282342 8.254439-5.282342-4.714147 8.803903 8.254439 6.456195h-10.614634l-3.534049 11.157854-3.540292-9.984h-10.021464z m51.287415 53.416585L281.6 662.1596099999999l-8.248195-21.13561h-22.403122l17.095805-14.673171-5.307317-22.303219 18.862829 12.325463 18.869073-12.325463-5.307317 22.303219 17.095805 14.673171h-22.403122z m35.371707-54.590439l-4.120975 11.157854-3.540293-9.984h-10.021463l7.661268-6.456195v-9.977757l8.254439 5.282342 8.254439-5.282342-6.487415 8.803903 7.667513 6.456195h-7.667513z m31.837659 32.287219l-3.534049 9.977757-3.540293-9.977757h-10.021463l7.661268-6.456195v-9.977756l8.254439 5.282342 8.254439-5.282342-4.714146 9.977756 7.661268 6.456195h-10.021463z m60.091317-449.998048H200.254439v49.26439H417.155122v-49.26439z m0-96.343415H200.254439v49.258146H417.155122v-49.258146z m785.63278 0H465.77639v49.258146h737.011512v-49.258146zM19.574634 793.762341H0V896h102.356293v-19.574634H19.574634v-82.663025z m0-902.206439h82.781659V-128H0v102.362537h19.574634v-82.806635z"  horiz-adv-x="1498" />

    
    <glyph glyph-name="dizhi" unicode="&#58902;" d="M512 364.8c-76.8 0-138.666667 61.866667-138.666667 138.666667s61.866667 138.666667 138.666667 138.666666 138.666667-61.866667 138.666667-138.666666-61.866667-138.666667-138.666667-138.666667z m0 224c-46.933333 0-85.333333-38.4-85.333333-85.333333s38.4-85.333333 85.333333-85.333334 85.333333 38.4 85.333333 85.333334-38.4 85.333333-85.333333 85.333333zM512 32c-6.4 0-12.8 2.133333-19.2 8.533333-2.133333 2.133333-38.4 36.266667-83.2 85.333334-108.8 115.2-174.933333 202.666667-196.266667 256-14.933333 38.4-23.466667 78.933333-23.466666 121.6C189.866667 682.666667 334.933333 825.6 512 825.6s322.133333-145.066667 322.133333-322.133333c0-44.8-8.533333-85.333333-25.6-125.866667-23.466667-53.333333-87.466667-138.666667-194.133333-253.866667-46.933333-49.066667-83.2-85.333333-83.2-85.333333-6.4-4.266667-12.8-6.4-19.2-6.4z m0 740.266667c-149.333333 0-268.8-121.6-268.8-268.8 0-36.266667 6.4-70.4 19.2-102.4 19.2-46.933333 85.333333-132.266667 185.6-241.066667 25.6-27.733333 49.066667-51.2 64-66.133333 14.933333 14.933333 38.4 38.4 64 66.133333 100.266667 108.8 164.266667 189.866667 185.6 236.8 14.933333 34.133333 21.333333 68.266667 21.333333 104.533333C780.8 652.8 661.333333 772.266667 512 772.266667zM512-57.6c-162.133333 0-337.066667 36.266667-337.066667 115.2 0 85.333333 192 108.8 251.733334 113.066667 8.533333 0 17.066667-2.133333 21.333333-8.533334 25.6-27.733333 49.066667-51.2 64-66.133333 14.933333 14.933333 38.4 38.4 64 66.133333 6.4 6.4 12.8 8.533333 21.333333 8.533334 59.733333-4.266667 251.733333-27.733333 251.733334-113.066667 0-78.933333-174.933333-115.2-337.066667-115.2z m-93.866667 172.8c-132.266667-12.8-187.733333-46.933333-189.866666-57.6 2.133333-19.2 100.266667-61.866667 283.733333-61.866667 181.333333 0 281.6 44.8 283.733333 61.866667-2.133333 12.8-57.6 46.933333-189.866666 57.6-42.666667-44.8-74.666667-76.8-74.666667-76.8-10.666667-10.666667-27.733333-10.666667-36.266667 0-2.133333 2.133333-34.133333 32-76.8 76.8z"  horiz-adv-x="1024" />

    
    <glyph glyph-name="Group-" unicode="&#59054;" d="M768 384a32 32 0 0 0 64 0v-314.56A98.56 98.56 0 0 0 736-32H288a98.56 98.56 0 0 0-96 101.44V384a32 32 0 0 0 64 0v-314.56A35.2 35.2 0 0 1 288 32h448a35.2 35.2 0 0 1 32 37.44zM224 352a128 128 0 0 0-124.8 98.56 93.12 93.12 0 0 0 5.12 56.64l81.6 201.28A96 96 0 0 0 274.88 768h474.24a96 96 0 0 0 88.96-59.52l82.56-201.28a93.12 93.12 0 0 0 5.12-56.64A128 128 0 0 0 704 395.52a128 128 0 0 0-192 0 128 128 0 0 0-192 0A128 128 0 0 0 224 352zM749.12 704H274.88a32 32 0 0 1-29.76-19.84l-82.56-201.28a28.8 28.8 0 0 1-1.92-17.6A64 64 0 0 1 288 480a32 32 0 0 0 64 0 64 64 0 0 1 128 0 32 32 0 0 0 64 0 64 64 0 0 1 128 0 32 32 0 0 0 64 0 64 64 0 0 1 128-14.72 28.8 28.8 0 0 1-1.92 17.6l-83.2 201.28a32 32 0 0 1-29.76 19.84zM384 576a32 32 0 0 0 0 64h256a32 32 0 0 0 0-64z"  horiz-adv-x="1024" />

    
    <glyph glyph-name="suo" unicode="&#58903;" d="M506.047171 335.328535c0 9.184365 7.426863 16.611228 16.582881 16.611228 9.184365 0 16.611228-7.426863 16.611228-16.611228v-185.218027c0-9.184365-7.426863-16.611228-16.611228-16.611228-9.156018 0-16.582881 7.426863-16.582881 16.611228v185.218027z m-252.258222 199.958366v71.263869c0 73.928469 30.246041 141.167091 78.9742 189.866902 48.699812 48.728159 115.938434 78.9742 189.866903 78.9742 73.956815 0 141.195438-30.246041 189.89525-78.9742 48.728159-48.699812 78.9742-115.938434 78.9742-189.866902v-71.263869h-33.194109v71.263869c0 64.77245-26.504263 123.677112-69.251246 166.424094-42.718636 42.718636-101.623298 69.222899-166.424095 69.222899-64.77245 0-123.677112-26.504263-166.395748-69.222899-42.746983-42.746983-69.251246-101.651644-69.251246-166.424094v-71.263869H253.788949z m-32.173624 16.611228h602.057801c25.795593 0 49.238401-10.545012 66.246484-27.524748 16.979736-17.008083 27.524748-40.450891 27.524748-66.246485v-463.130107c0-25.795593-10.545012-49.238401-27.524748-66.246484-17.008083-16.979736-40.450891-27.524748-66.246484-27.524749H221.615325c-25.795593 0-49.238401 10.545012-66.246484 27.524749-16.979736 17.008083-27.524748 40.450891-27.524748 66.246484V458.126896c0 25.795593 10.545012 49.238401 27.524748 66.246485 17.008083 16.979736 40.450891 27.524748 66.246484 27.524748z m602.057801-33.19411H221.615325c-16.639575 0-31.776769-6.83158-42.775329-17.801793-10.970214-10.998561-17.801794-26.135755-17.801794-42.77533v-463.130107c0-16.639575 6.83158-31.776769 17.801794-42.77533 10.998561-10.970214 26.135755-17.801794 42.775329-17.801793h602.057801c16.639575 0 31.776769 6.83158 42.775329 17.801793 10.970214 10.998561 17.801794 26.135755 17.801794 42.77533V458.126896c0 16.639575-6.83158 31.776769-17.801794 42.77533-10.998561 10.970214-26.135755 17.801794-42.775329 17.801793z"  horiz-adv-x="1024" />

    
    <glyph glyph-name="tianjia1" unicode="&#58911;" d="M963.9424 375.81824c-1.79712-238.32064-192.47616-436.28032-431.04256-445.23008-237.78816-8.92416-443.06944 180.61824-459.01824 416.54272C57.856 584.16128 239.89248 796.3648 475.59168 819.40992c236.05248 23.07584 454.82496-151.424 484.93568-386.6112 2.41664-18.88256 3.26144-37.92896 3.41504-56.98048 0.24064-32.9984 51.45088-33.01888 51.2 0-1.76128 234.1632-168.2176 439.82848-398.32064 486.912C386.94912 909.76256 149.34528 782.23872 59.75552 566.03136-31.03744 346.9056 49.82784 93.0816 244.97152-38.7584c195.78368-132.27008 465.408-98.17088 629.40672 68.16256 90.53696 91.83744 139.79648 218.08128 140.75904 346.41408 0.24064 33.06496-50.95936 33.04448-51.19488 0zM239.42144 350.23872h558.1056c33.01376 0 33.01376 51.23584 0 51.23584H239.42144c-33.01888 0-33.01888-51.23584 0-51.23584zM544.1024 96.79872V654.90944c0 33.01888-51.23072 33.01888-51.23072 0v-558.11072c-0.00512-33.01376 51.23072-33.01376 51.23072 0z"  horiz-adv-x="1024" />

    
    <glyph glyph-name="xiugai" unicode="&#59191;" d="M960.206979-128H43.574468A43.620948 43.620948 0 0 0 0-84.425532V778.128159a43.620948 43.620948 0 0 0 43.574468 43.574468h516.421356a20.334752 20.334752 0 0 0 0-40.669504H43.574468a2.904965 2.904965 0 0 1-2.904964-2.904964v-862.565311a2.904965 2.904965 0 0 1 2.904964-2.904964h916.644131a2.904965 2.904965 0 0 1 2.904964 2.904964V380.659291a20.334752 20.334752 0 0 0 40.669504 0v-465.096443a43.620948 43.620948 0 0 0-43.586088-43.562848zM518.687228 325.581163a20.334752 20.334752 0 0 0-14.362144 34.731756L1035.120204 890.050633a20.334752 20.334752 0 0 0 28.72429-28.782389l-530.795121-529.737714a20.276652 20.276652 0 0 0-14.362145-5.949367z"  horiz-adv-x="1069" />

    
    <glyph glyph-name="tianjia2" unicode="&#58887;" d="M819.8 699.1C647.9 871 369.1 871 197.2 699.1s-171.9-450.7 0-622.7c171.9-171.9 450.7-171.9 622.7 0s171.9 450.8-0.1 622.7zM508.5 75.4c-33.6 0-61.1 27.5-61.1 61.1V326.7H257.3c-33.6 0-61.1 27.5-61.1 61.1s27.5 61.1 61.1 61.1h190.1V639c0 33.6 27.5 61.1 61.1 61.1s61.1-27.5 61.1-61.1v-190.1h190.1c33.6 0 61.1-27.5 61.1-61.1s-27.5-61.1-61.1-61.1H569.6v-190.1c0-33.7-27.5-61.2-61.1-61.2z"  horiz-adv-x="1024" />

    
    <glyph glyph-name="huoche" unicode="&#59032;" d="M1004.373333 343.04L853.333333 554.097778a28.728889 28.728889 0 0 1-23.04 11.946666h-110.08V799.004444c0 15.644444-12.8 28.444444-28.444444 28.444445H42.666667c-15.644444 0-28.444444-12.8-28.444445-28.444445v-674.702222c0-15.644444 12.8-28.444444 28.444445-28.444444h136.817777c-1.991111-8.817778-3.128889-17.92-3.128888-27.591111 0-70.542222 57.457778-128 128-128s128 57.457778 128 128c0 9.386667-1.137778 18.488889-3.128889 27.591111h272.782222c-1.991111-8.817778-3.128889-17.92-3.128889-27.591111 0-70.542222 57.457778-128 128-128s128 57.457778 128 128c0 9.386667-1.137778 18.488889-3.128889 27.591111h29.866667c15.644444 0 28.444444 12.8 28.444444 28.444444v202.24c-0.284444 5.973333-2.275556 11.662222-5.688889 16.497778z m-629.191111-274.488889a71.111111 71.111111 0 0 0-142.222222 0c0 9.671111 1.991111 19.057778 5.688889 27.591111 10.808889 25.6 36.124444 43.52 65.422222 43.52s54.613333-17.92 65.422222-43.52c3.982222-8.533333 5.688889-17.92 5.688889-27.591111z m24.462222 84.195556c-23.324444 26.453333-57.457778 43.52-95.288888 43.52s-71.964444-17.066667-95.288889-43.52H71.111111V770.56h592.213333v-617.813333h-263.68z m498.062223-84.195556a71.111111 71.111111 0 0 0-142.222223 0c0 9.671111 1.991111 19.057778 5.688889 27.591111a71.111111 71.111111 0 0 0 65.422223 43.52 71.111111 71.111111 0 0 0 65.422222-43.52c3.697778-8.533333 5.688889-17.92 5.688889-27.591111z m55.182222 84.195556h-31.004445c-23.324444 26.453333-57.457778 43.52-95.288888 43.52s-71.964444-17.066667-95.288889-43.52h-10.808889V509.155556h95.573333l137.102222-191.715556v-164.693333z"  horiz-adv-x="1024" />

    
    <glyph glyph-name="iconfront-" unicode="&#58906;" d="M767.8 381.7c-33.3 0-65.5 11.5-90.7 32.5-15.1 12.5-27.2 28-35.6 45.1-8.4-17.2-20.5-32.6-35.6-45.1-25.3-21-57.5-32.5-90.7-32.5s-65.5 11.5-90.7 32.5c-15.1 12.5-27.2 28-35.6 45.1-8.4-17.2-20.5-32.6-35.6-45.1-25.3-21-57.5-32.5-90.7-32.5-33.6 0-66.1 11.8-91.5 33.2-25.2 21.2-41.8 50.5-46.8 82.5l-0.1 0.5-1.1 9.7c-0.3 3.4-0.4 6.8-0.4 10.1 0 10.9 3.7 33.2 35.6 100.9 19.3 41 42.6 85.1 58.8 114.9 14.3 26.4 42.3 42.8 73 42.8h453.5c31.4 0 59.7-17 73.8-44.4 59.9-116.2 90.2-188.3 90.2-214.3v-1.3l-0.1-1.5-1.5-17.5c-4.9-31.9-21.5-61.2-46.8-82.5-25.3-21.3-57.8-33.1-91.4-33.1zM641.5 513.5c7.9 0 14.7-5.7 16-13.5 8.9-52.3 55.3-90.3 110.3-90.3 54.8 0 102.2 39.3 110.5 91.4l1.3 15.7v0.9c0 15.7-22.9 76.9-87.1 201.5-9.3 18-28 29.2-48.9 29.2H290.1c-20.4 0-38.9-10.8-48.4-28.2-16-29.5-39.1-73.1-58.1-113.5-28.7-60.9-33-81.9-33-89 0-2.6 0.1-5.2 0.3-7.8l1-8.6c8.2-52.3 55.7-91.7 110.6-91.7 55 0 101.4 38 110.3 90.3 1.3 7.8 8.1 13.5 16 13.5s14.7-5.7 16-13.5c8.9-52.3 55.3-90.3 110.3-90.3s101.4 38 110.3 90.3c1.4 8 8.2 13.6 16.1 13.6zM769.3-4.2H267.6c-40.7 0-73.9 29.9-73.9 66.6V404.2h28v-341.8c0-21.3 20.6-38.6 45.9-38.6h501.7c25.3 0 45.9 17.3 45.9 38.6V413.7h28v-351.4c0-36.6-33.2-66.5-73.9-66.5z"  horiz-adv-x="1024" />

    
    <glyph glyph-name="xingxing1" unicode="&#58894;" d="M575.852903 780.573598L661.092435 607.945638c10.130509-20.465674 29.675227-34.689317 52.289797-37.963825l190.433097-27.62866c56.996902-8.288598 79.7138-78.281203 38.475467-118.496253l-137.836314-134.35715c-16.372539-15.963226-23.84251-38.987109-19.954032-61.49935l32.540421-189.716799c9.721195-56.792245-49.833916-100.077146-100.793444-73.267113L545.870691 54.553812a69.491196 69.491196 0 0 1-64.67153 0l-170.376737-89.537324c-50.959528-26.810033-110.51464 16.474868-100.793444 73.267113L242.569401 228.0004c3.888478 22.512241-3.581493 45.536125-19.954032 61.49935L84.779055 423.754572c-41.238333 40.215049-18.521435 110.207655 38.475467 118.496252l190.433097 27.62866c22.61457 3.274508 42.159288 17.498151 52.289797 37.963826L451.319277 780.573598c25.479764 51.675827 99.053862 51.675827 124.533626 0z"  horiz-adv-x="1024" />

    
    <glyph glyph-name="shanchu" unicode="&#59023;" d="M907.618072 663.257647 744.713682 663.257647 744.713682 779.617048c0 12.852708-10.419786 23.272495-23.272495 23.272495L302.556765 802.889543c-12.852708 0-23.272495-10.418762-23.272495-23.272495l0-116.360425L116.380904 663.256623c-12.852708 0-23.272495-10.419786-23.272495-23.272495s10.418762-23.272495 23.272495-23.272495l791.237168 0c12.852708 0 23.272495 10.419786 23.272495 23.272495S920.469756 663.257647 907.618072 663.257647zM325.829259 756.345577l372.340458 0 0-93.08793L325.829259 663.257647 325.829259 756.345577zM791.257647 523.637015c-12.852708 0-23.272495-10.418762-23.272495-23.272495l0-488.712146L256.012799 11.652375 256.012799 500.364521c0 12.852708-10.418762 23.272495-23.272495 23.272495s-23.272495-10.418762-23.272495-23.272495l0-511.983617c0-12.852708 10.418762-23.272495 23.272495-23.272495l558.516318 0c12.852708 0 23.272495 10.419786 23.272495 23.272495L814.529118 500.364521C814.529118 513.217229 804.110355 523.637015 791.257647 523.637015zM442.189684 128.012799l0 372.351721c0 12.852708-10.418762 23.272495-23.272495 23.272495s-23.272495-10.418762-23.272495-23.272495l0-372.351721c0-12.852708 10.418762-23.272495 23.272495-23.272495S442.189684 115.160091 442.189684 128.012799zM628.353257 128.012799l0 372.351721c0 12.852708-10.419786 23.272495-23.272495 23.272495s-23.272495-10.418762-23.272495-23.272495l0-372.351721c0-12.852708 10.419786-23.272495 23.272495-23.272495S628.353257 115.160091 628.353257 128.012799z"  horiz-adv-x="1024" />

    
    <glyph glyph-name="shanchu1" unicode="&#58918;" d="M845.12256 608.44544v-572.62592c0-15.77984 10.89024-86.44096-15.2576-86.44096H247.7568c-11.74528 0-36.38784-4.56704-37.92384 12.53888-0.90112 10.0352 0 20.57216 0 30.63296V608.44032c0 33.01888-51.2 33.01888-51.2 0v-572.62592c0-44.94848-10.20416-99.40992 31.56992-128.94208 15.00672-10.60352 35.80928-8.69888 53.31968-8.69888h531.38432c48.04096 0 121.41568-6.58432 121.41568 63.7952V608.44032c0 33.024-51.2 33.024-51.2 0.00512zM501.86752 475.53024v-361.33888c0-33.01376 51.22048-33.01376 51.22048 0V475.53024c0 33.01888-51.22048 33.01888-51.22048 0zM325.35552 475.53024v-361.33888c0-33.01376 51.2-33.01376 51.2 0V475.53024c0 33.01888-51.2 33.01888-51.2 0zM676.00384 475.53024v-361.33888c0-33.01376 51.2-33.01376 51.2 0V475.53024c0 33.01888-51.2 33.01888-51.2 0zM102.5024 678.4768h849.95584c33.01376 0 33.01376 51.2 0 51.2H102.5024c-33.01888 0-33.01888-51.2 0-51.2zM338.7648 721.17248V801.46944c0 18.37056 1.00864 30.9248 21.6832 30.9248h334.0544c20.67456 0 21.6832-12.55424 21.6832-30.9248v-80.29696c0-33.01888 51.2-33.01888 51.2 0 0 54.73792 18.51392 162.42176-65.26464 162.42176H352.82432c-83.77344 0-65.25952-107.68384-65.25952-162.42176 0-33.01888 51.2-33.01888 51.2 0z"  horiz-adv-x="1024" />

    
    <glyph glyph-name="ABCDEF_shanchu" unicode="&#59109;" d="M448 96v448c0 19.2-12.8 32-32 32s-32-12.8-32-32v-448c0-19.2 12.8-32 32-32s32 12.8 32 32zM288 832h448c19.2 0 32 12.8 32 32s-12.8 32-32 32h-448c-19.2 0-32-12.8-32-32s12.8-32 32-32zM864 640c-19.2 0-32-12.8-32-32V0c0-38.4-25.6-64-64-64H256c-38.4 0-64 25.6-64 64V608c0 19.2-12.8 32-32 32s-32-12.8-32-32V0c0-70.4 57.6-128 128-128h512c70.4 0 128 57.6 128 128V608c0 19.2-12.8 32-32 32zM992 768H32c-19.2 0-32-12.8-32-32s12.8-32 32-32h960c19.2 0 32 12.8 32 32s-12.8 32-32 32zM640 96v448c0 19.2-12.8 32-32 32s-32-12.8-32-32v-448c0-19.2 12.8-32 32-32s32 12.8 32 32z"  horiz-adv-x="1024" />

    
    <glyph glyph-name="shangxiajiantou" unicode="&#59063;" d="M512.03799 896 921.675981 484.352 102.4 484.352 512.03799 896ZM512.03799-99.328 102.4 312.32 921.675981 312.32 512.03799-99.328Z"  horiz-adv-x="1024" />

    
    <glyph glyph-name="shangxiaxuanze" unicode="&#59031;" d="M750.627 309.693c35.552 0 64.373-28.83 64.373-64.395a64.407 64.407 0 0 0-16.525-43.077L544.848-79.683c-23.783-26.434-64.485-28.577-90.91-4.786a64.384 64.384 0 0 0-4.786 4.786L195.525 202.221c-23.783 26.434-21.64 67.15 4.785 90.941a64.36 64.36 0 0 0 43.063 16.53z m-205.779 471.99l253.627-281.904A64.407 64.407 0 0 0 815 456.702c0-35.564-28.82-64.395-64.373-64.395H243.373a64.36 64.36 0 0 0-43.063 16.53c-26.425 23.792-28.568 64.508-4.785 90.942l253.627 281.904a64.384 64.384 0 0 0 4.785 4.786c26.426 23.791 67.128 21.648 90.911-4.786z"  horiz-adv-x="1024" />

    
    <glyph glyph-name="fenlei" unicode="&#58890;" d="M350.595448 598.68964l572.384275 0c19.787672 0 35.776831 16.027022 35.776831 35.776831 0 19.744693-15.989159 35.769668-35.776831 35.769668L350.595448 670.23614c-19.74981 0-35.775808-16.024975-35.775808-35.769668C314.818617 614.716662 330.845639 598.68964 350.595448 598.68964L350.595448 598.68964zM922.979724 419.817764 350.595448 419.817764c-19.74981 0-35.775808-16.027022-35.775808-35.770691 0-19.748786 16.027022-35.775808 35.775808-35.775808l572.384275 0c19.787672 0 35.776831 16.027022 35.776831 35.775808C958.756555 403.790742 942.767396 419.817764 922.979724 419.817764L922.979724 419.817764zM922.979724 169.398364 350.595448 169.398364c-19.74981 0-35.775808-15.989159-35.775808-35.775808 0-19.782555 16.027022-35.771715 35.775808-35.771715l572.384275 0c19.787672 0 35.776831 15.989159 35.776831 35.771715C958.756555 153.409205 942.767396 169.398364 922.979724 169.398364L922.979724 169.398364zM186.537975 685.057707c-13.241582 13.242606-31.856545 20.956288-50.590212 20.956288-18.72855 0-37.347606-7.713682-50.591235-20.956288-13.242606-13.243629-20.956288-31.862685-20.956288-50.590212s7.707542-37.347606 20.956288-50.590212c13.241582-13.241582 31.856545-20.956288 50.590212-20.956288 18.72855 0 37.347606 7.713682 50.591235 20.956288 13.242606 13.243629 20.956288 31.862685 20.956288 50.590212S199.786721 671.814078 186.537975 685.057707zM186.537975 184.122717c-13.241582 13.240559-31.856545 20.957311-50.590212 20.957311-18.72855 0-37.347606-7.716752-50.591235-20.957311-13.242606-13.244652-20.956288-31.862685-20.956288-50.590212 0-18.729573 7.707542-37.34863 20.956288-50.591235 13.241582-13.242606 31.856545-20.956288 50.590212-20.956288 18.72855 0 37.347606 7.712659 50.591235 20.956288 13.242606 13.242606 20.956288 31.862685 20.956288 50.591235C207.494263 152.260032 199.786721 170.877041 186.537975 184.122717zM186.537975 434.634214c-13.241582 13.241582-31.856545 20.956288-50.590212 20.956288-18.72855 0-37.347606-7.714705-50.591235-20.956288-13.242606-13.244652-20.956288-31.862685-20.956288-50.590212 0-18.72855 7.707542-37.34863 20.956288-50.591235 13.241582-13.242606 31.856545-20.956288 50.590212-20.956288 18.72855 0 37.347606 7.712659 50.591235 20.956288 13.242606 13.242606 20.956288 31.862685 20.956288 50.591235C207.494263 402.771529 199.786721 421.389562 186.537975 434.634214z"  horiz-adv-x="1024" />

    
    <glyph glyph-name="shouye" unicode="&#58910;" d="M563.197497 896 460.802503 896 0.012259 409.611773c0 0 0.901006-102.396016 51.200051-102.396016s76.797012 0 76.797012 0 0-232.496449 0-332.816677c0-100.300818 102.397038-102.399081 102.397038-102.399081l204.79714 0c0 0 0 272.419617 0 358.416702 0 25.647017 25.600026 25.600026 25.600026 25.600026l102.394994 0c0 0 25.601047-0.851972 25.601047-25.600026 0-92.198911 0-358.416702 0-358.416702s99.647027 0 204.795097 0c105.147048 0 102.398059 102.399081 102.398059 102.399081L895.992721 332.814761c0 0 27.19875 0 76.799055 0 49.59724 0 51.195965 76.79599 51.195965 76.79599L563.197497 896z"  horiz-adv-x="1024" />

    
    <glyph glyph-name="wode" unicode="&#59020;" d="M511.975619 866.401524c-269.312 0-487.619048-218.258286-487.619048-487.594667 0-269.360762 218.307048-487.643429 487.619048-487.643429 269.336381 0 487.66781 218.282667 487.66781 487.643429C999.643429 648.118857 781.312 866.401524 511.975619 866.401524L511.975619 866.401524zM511.975619 825.782857 511.975619 825.782857c246.467048 0 447.000381-200.533333 447.000381-446.976 0-108.422095-38.863238-207.993905-103.326476-285.45219-44.568381 18.627048-149.77219 55.149714-214.869333 74.337524-5.558857 1.755429-6.436571 2.048-6.436571 25.185524 0 19.041524 7.826286 38.278095 15.506286 54.51581 8.289524 17.724952 18.115048 47.420952 21.674667 74.093714 9.874286 11.483429 23.332571 34.084571 31.98781 77.190095 7.606857 38.058667 4.071619 51.858286-0.975238 64.828952-0.512 1.389714-1.048381 2.730667-1.487238 4.047238-1.901714 8.923429 0.707048 55.222857 7.241143 91.111619 4.486095 24.673524-1.145905 77.06819-35.08419 120.393143-21.430857 27.428571-62.439619 61.049905-137.313524 65.731048l-41.081905-0.048762c-73.606095-4.632381-114.614857-38.253714-136.045714-65.682286-33.962667-43.300571-39.570286-95.719619-35.08419-120.368762 6.582857-35.937524 9.118476-82.212571 7.265524-90.940952-0.414476-1.511619-0.926476-2.852571-1.511619-4.242286-4.998095-12.970667-8.582095-26.794667-0.950857-64.828952 8.630857-43.081143 22.040381-65.706667 32.01219-77.190095 3.486476-26.672762 13.336381-56.393143 21.625905-74.093714 6.095238-12.897524 8.94781-30.524952 8.94781-55.417905 0-23.04-0.853333-23.381333-6.070857-24.990476-67.364571-19.846095-174.518857-58.61181-214.503619-76.141714-65.706667 77.848381-105.472 178.322286-105.472 287.98781C64.975238 625.249524 265.508571 825.782857 511.975619 825.782857L511.975619 825.782857zM199.92381 59.196952 199.92381 59.196952c45.738667 18.67581 136.97219 51.2 196.87619 68.900571 34.864762 10.99581 34.864762 40.326095 34.864762 63.853714 0 19.577905-1.365333 48.420571-12.775619 72.752762-7.850667 16.725333-16.822857 45.275429-18.797714 67.705905-0.438857 5.241905-2.852571 10.044952-6.851048 13.482667-5.753905 5.095619-17.481143 23.527619-24.917333 60.732952-5.924571 29.476571-3.413333 35.937524-0.999619 42.154667 1.048381 2.657524 2.048 5.266286 2.82819 8.240762 4.85181 17.822476-0.536381 76.434286-6.485333 108.934095-2.56 14.116571 0.658286 54.223238 27.111619 88.088381 23.673905 30.281143 59.538286 47.152762 105.301333 50.078476l38.521905 0.048762c46.982095-2.974476 82.846476-19.821714 106.569143-50.127238 26.428952-33.889524 29.671619-73.97181 27.062857-88.088381-5.87581-32.49981-11.337143-91.087238-6.460952-108.934095 0.853333-2.974476 1.77981-5.583238 2.80381-8.240762 2.438095-6.241524 4.924952-12.702476-0.950857-42.154667-7.460571-37.180952-19.21219-55.637333-24.941714-60.732952-3.949714-3.437714-6.38781-8.240762-6.851048-13.482667-1.950476-22.430476-10.898286-51.004952-18.797714-67.705905-8.996571-19.139048-19.358476-44.617143-19.358476-71.850667 0-23.625143 0-52.955429 35.181714-64.048762 57.368381-16.896 149.016381-48.420571 197.436952-67.486476-80.822857-80.042667-191.902476-129.560381-314.343619-129.560381C390.680381-68.242286 280.551619-19.577905 199.92381 59.196952z"  horiz-adv-x="1024" />

    
    </font>
</defs>
</svg>
